<svg xmlns="http://www.w3.org/2000/svg" width="49" height="50" viewBox="0 0 49 50">
  <metadata><?xpacket begin="﻿" id="W5M0MpCehiHzreSzNTczkc9d"?>
<x:xmpmeta xmlns:x="adobe:ns:meta/" x:xmptk="Adobe XMP Core 5.6-c140 79.160451, 2017/05/06-01:08:21        ">
   <rdf:RDF xmlns:rdf="http://www.w3.org/1999/02/22-rdf-syntax-ns#">
      <rdf:Description rdf:about=""/>
   </rdf:RDF>
</x:xmpmeta>
                                                                                                    
                                                                                                    
                                                                                                    
                                                                                                    
                                                                                                    
                                                                                                    
                                                                                                    
                                                                                                    
                                                                                                    
                                                                                                    
                                                                                                    
                                                                                                    
                                                                                                    
                                                                                                    
                                                                                                    
                                                                                                    
                                                                                                    
                                                                                                    
                                                                                                    
                                                                                                    
                           
<?xpacket end="w"?></metadata>
<defs>
    <style>
      .cls-1 {
        fill: #fefefe;
        fill-rule: evenodd;
      }
    </style>
  </defs>
  <path id="corrigir-riscos-de-conducao" class="cls-1" d="M531.652,457.344a2.516,2.516,0,1,1-2.516-2.5A2.511,2.511,0,0,1,531.652,457.344Zm10.212-2.5a2.505,2.505,0,1,0,2.516,2.5A2.511,2.511,0,0,0,541.864,454.839Zm10.747,10.2V464.75a22.209,22.209,0,0,1-1.007,2.394,14.8,14.8,0,0,0,.412,1.883,12.518,12.518,0,0,0,5.952,4.143,6.854,6.854,0,0,1-3.642.451,10.86,10.86,0,0,0,5.091,3.551c-5.38,4.828-14.246,4.936-20.443,1.186a11.526,11.526,0,0,1-6.948,0c-6.2,3.75-15.063,3.642-20.443-1.186a10.85,10.85,0,0,0,5.156-3.639,6.916,6.916,0,0,1-2.92-.516,13,13,0,0,0,4.773-2.812,14.834,14.834,0,0,0,.8-3.061,22.209,22.209,0,0,1-1.007-2.394v0.286h-3.042A4.338,4.338,0,0,1,511,460.708v-4.76a4.323,4.323,0,0,1,2.279-3.807c0.045-6.759,2.024-12.037,5.889-15.686C523,432.835,528.5,431,535.5,431s12.5,1.835,16.332,5.455c3.865,3.649,5.844,8.927,5.889,15.686A4.323,4.323,0,0,1,560,455.948v4.76a4.338,4.338,0,0,1-4.347,4.328h-3.042ZM550.8,457.36c0-1.114-.057-2.16-0.142-3.174-1.961-1.786-5.548-3.133-10.072-3.608a5.435,5.435,0,0,1,1.664,2.714c-2.631-1.914-8.144-2.507-9.975-4.558h0c-2.915-1.921-3.68-4.672-3.7-3.534-0.118,5.462-4.007,9.719-8.324,10.32-0.027.6-.05,1.207-0.05,1.84a19.508,19.508,0,0,0,1.023,6.308c2.425,2.913,6.43,3.735,9.975,3.953a4.54,4.54,0,0,1,3.854-1.77c2.331,0,4.221,1.336,4.221,2.983s-1.89,2.984-4.221,2.984a4.44,4.44,0,0,1-3.933-1.907,20.841,20.841,0,0,1-7.629-1.7c3.414,5.01,8.706,7.659,12.011,7.659C540.693,475.865,550.8,469.333,550.8,457.36Zm2.632-5.74H555.1c-0.276-11.793-7.038-18.023-19.6-18.023s-19.328,6.23-19.6,18.023h1.672a20.721,20.721,0,0,1,3.866-9.757c3.127-4.006,7.859-6.037,14.066-6.037s10.939,2.031,14.066,6.037A20.721,20.721,0,0,1,553.432,451.62Z" transform="translate(-511 -431)"/>
</svg>
