<svg xmlns="http://www.w3.org/2000/svg" width="45" height="38" viewBox="0 0 45 38">
  <metadata><?xpacket begin="﻿" id="W5M0MpCehiHzreSzNTczkc9d"?>
<x:xmpmeta xmlns:x="adobe:ns:meta/" x:xmptk="Adobe XMP Core 5.6-c140 79.160451, 2017/05/06-01:08:21        ">
   <rdf:RDF xmlns:rdf="http://www.w3.org/1999/02/22-rdf-syntax-ns#">
      <rdf:Description rdf:about=""/>
   </rdf:RDF>
</x:xmpmeta>
                                                                                                    
                                                                                                    
                                                                                                    
                                                                                                    
                                                                                                    
                                                                                                    
                                                                                                    
                                                                                                    
                                                                                                    
                                                                                                    
                                                                                                    
                                                                                                    
                                                                                                    
                                                                                                    
                                                                                                    
                                                                                                    
                                                                                                    
                                                                                                    
                                                                                                    
                                                                                                    
                           
<?xpacket end="w"?></metadata>
<defs>
    <style>
      .cls-1 {
        fill: #fcfcfc;
        fill-rule: evenodd;
      }
    </style>
  </defs>
  <path id="facil-integracao" class="cls-1" d="M1246.12,547.432a1.594,1.594,0,0,0-1.2-.432h-0.14l-7.87.368a1.706,1.706,0,0,0-1.21.413,1.511,1.511,0,0,0-.29.423,1.344,1.344,0,0,0,.42,1.636l0.65,0.662c0.46,0.46.92,0.919,1.38,1.37L1222,567.655l-7.13-7.088a2.287,2.287,0,0,0-1.61-.661,2.264,2.264,0,0,0-1.6.661L1202.17,570a2.238,2.238,0,0,0,0,3.189l0.42,0.423a2.284,2.284,0,0,0,1.61.662,2.26,2.26,0,0,0,1.6-.662l7.46-7.418,7.13,7.087a2.266,2.266,0,0,0,1.61.662,2.3,2.3,0,0,0,1.61-.662l17.89-17.8,2.03,2a1.528,1.528,0,0,0,1.08.57,1.352,1.352,0,0,0,.65-0.175,1.655,1.655,0,0,0,.88-1.581c0.07-1.691.15-3.382,0.24-5.083l0.12-2.546A1.631,1.631,0,0,0,1246.12,547.432Zm-4.62,11.839-6.72,6.683v18.237a0.814,0.814,0,0,0,.82.809h5.64a0.812,0.812,0,0,0,.81-0.809V559.777c-0.19-.156-0.32-0.294-0.43-0.386Zm-16.79,16.555v8.365a0.812,0.812,0,0,0,.81.809h5.64a0.812,0.812,0,0,0,.81-0.809V568.758l-6.46,6.425A5.068,5.068,0,0,1,1224.71,575.826Zm-10.08-4.485v12.85a0.812,0.812,0,0,0,.81.809h5.64a0.812,0.812,0,0,0,.81-0.809v-7.565a4.941,4.941,0,0,1-3.39-1.434Zm-10.08,5.6v7.253a0.812,0.812,0,0,0,.81.809H1211a0.814,0.814,0,0,0,.82-0.809V571.432l-4.1,4.073A4.986,4.986,0,0,1,1204.55,576.938Z" transform="translate(-1201.5 -547)"/>
</svg>
