<?xml version="1.0" encoding="utf-8"?>
<!-- Generator: Adobe Illustrator 16.0.0, SVG Export Plug-In . SVG Version: 6.00 Build 0)  -->
<!DOCTYPE svg PUBLIC "-//W3C//DTD SVG 1.1//EN" "http://www.w3.org/Graphics/SVG/1.1/DTD/svg11.dtd">
<svg version="1.1" id="Layer_1" xmlns="http://www.w3.org/2000/svg" xmlns:xlink="http://www.w3.org/1999/xlink" x="0px" y="0px"
	 width="45px" height="42.101px" viewBox="0 0 45 42.101" enable-background="new 0 0 45 42.101" xml:space="preserve">
<path fill-rule="evenodd" clip-rule="evenodd" fill="#E46B13" d="M22.5,40.501c-0.88,0-1.6-0.72-1.6-1.6c0-0.88,0.72-1.6,1.6-1.6
	s1.6,0.72,1.6,1.6C24.1,39.781,23.38,40.501,22.5,40.501z M22.5,35.701c-1.77,0-3.2,1.44-3.2,3.2c0,1.76,1.43,3.2,3.2,3.2
	s3.2-1.44,3.2-3.2C25.7,37.141,24.27,35.701,22.5,35.701z"/>
<path fill-rule="evenodd" clip-rule="evenodd" fill="#E46B13" d="M8.6,12.65c0.09,0.64,0.35,1.04,0.58,1.3
	c0.59,3.86,3.81,7.45,6.77,7.45c3.43,0,6.56-3.89,7.17-7.45c0.25-0.25,0.5-0.66,0.6-1.3c0.19-0.73,0.45-1.98,0.01-2.58
	c-0.03-0.03-0.06-0.06-0.07-0.09c0.41-1.51,0.94-4.65-0.94-6.8c-0.16-0.21-1.23-1.47-3.47-2.13l-1.08-0.38
	C16.4,0.12,15.29,0.01,15.23,0C15.16,0,15.08,0,15,0.03c-0.06,0.01-0.27,0.07-0.44,0.04c-0.42-0.06-1.06,0.17-1.18,0.21
	c-0.14,0.06-3.57,1.43-4.62,4.63c-0.09,0.27-0.5,1.63,0.05,4.96c-0.09,0.06-0.16,0.12-0.23,0.21C8.14,10.67,8.39,11.92,8.6,12.65z
	 M22.91,21.06c-1.01-0.49-1.84-1.05-2.01-1.59c0,0,0.58,5.61-4.32,5.76l-0.69-0.05c-4.44-0.39-4.73-5.72-4.73-5.72
	c-0.46,1.46-6.05,3.17-6.05,3.17c-1.67,0.63-2.36,1.58-2.36,1.58C0.29,27.87,0,35.98,0,35.98c0.03,1.86,0.82,2.04,0.82,2.04
	C6.48,40.55,15.33,41,15.33,41c0.48,0.01,0.93-0.02,1.37-0.05L16.72,41c0,0,4.32-0.21,8.85-1.21l-0.55-0.73
	c-0.45-0.59-1.46-1.36-2.7-2.06c-0.63-0.35-1.32-0.69-2.06-1.02c-0.35-0.16-0.71-0.3-1.07-0.44c-0.29-0.11-0.61-0.25-0.85-0.31
	l-3.4-0.92l6.37-12.97l2.72,1.72c0.58,0.37,1,0.68,1.46,1.01l0.11,0.07c0.46,0.34,0.9,0.69,1.35,1.06c0.97,0.78,1.82,1.54,2.62,2.34
	c0.06,0.05,0.11,0.11,0.18,0.16c0.27-0.29,0.52-0.56,0.79-0.84c-0.34-0.99-0.75-1.9-1.24-2.63c0,0-0.7-0.97-2.35-1.6
	c0,0-0.15-0.04-0.36-0.11c-1.47-0.7-2.89-1.14-2.89-1.14C23.41,21.27,23.14,21.16,22.91,21.06z M20.71,19.71
	c0.05-0.08,0.12-0.15,0.19-0.24c-0.01-0.05-0.02-0.08-0.02-0.08L20.71,19.71z M11.18,19.43l-0.01-0.04l-0.01,0.06l0.01-0.03
	L11.18,19.43z M39.81,22.05c-1.61,1.14-3.11,2.43-4.54,3.79c-1.43,1.36-2.79,2.79-4.09,4.26c-0.49,0.56-0.95,1.11-1.43,1.67
	c0,0-0.01-0.01-0.01-0.03c-0.69-0.91-1.43-1.72-2.21-2.49c-0.77-0.77-1.57-1.48-2.4-2.15c-0.42-0.33-0.84-0.66-1.26-0.98
	c-0.45-0.32-0.84-0.62-1.39-0.95l-3.38,6.9c0.31,0.08,0.75,0.26,1.14,0.4c0.41,0.16,0.8,0.32,1.19,0.51c0.8,0.35,1.57,0.73,2.3,1.13
	c1.46,0.83,2.82,1.81,3.6,2.83l2.6,3.43l1.5-3.26c0.76-1.64,1.65-3.33,2.58-4.96c0.94-1.64,1.93-3.25,3.02-4.8
	c1.08-1.54,2.24-3.04,3.53-4.41c1.3-1.38,2.73-2.65,4.44-3.55C43.14,19.94,41.42,20.93,39.81,22.05z"/>
</svg>
