<?xml version="1.0" encoding="utf-8"?>
<!-- Generator: Adobe Illustrator 16.0.0, SVG Export Plug-In . SVG Version: 6.00 Build 0)  -->
<!DOCTYPE svg PUBLIC "-//W3C//DTD SVG 1.1//EN" "http://www.w3.org/Graphics/SVG/1.1/DTD/svg11.dtd">
<svg version="1.1" id="Layer_1" xmlns="http://www.w3.org/2000/svg" xmlns:xlink="http://www.w3.org/1999/xlink" x="0px" y="0px"
	 width="47.994px" height="48px" viewBox="0 0 47.994 48" enable-background="new 0 0 47.994 48" xml:space="preserve">
<path fill-rule="evenodd" clip-rule="evenodd" fill="#E46B13" d="M34.067,46.4h-20.15c-1.06,0-1.92-0.87-1.92-1.92V38.4h24v6.08
	C35.997,45.53,35.137,46.4,34.067,46.4z M13.917,1.6h20.15c1.07,0,1.93,0.86,1.93,1.92V4.8h-24V3.52
	C11.997,2.46,12.857,1.6,13.917,1.6z M11.997,6.4h24v30.4h-24V6.4z M34.067,0h-20.15c-1.94,0-3.52,1.58-3.52,3.52v40.96
	c0,1.94,1.58,3.52,3.52,3.52h20.15c1.95,0,3.53-1.58,3.53-3.52V3.52C37.597,1.58,36.017,0,34.067,0z"/>
<path fill-rule="evenodd" clip-rule="evenodd" fill="#E46B13" d="M23.997,44c-0.88,0-1.6-0.72-1.6-1.6c0-0.88,0.72-1.6,1.6-1.6
	s1.6,0.72,1.6,1.6C25.597,43.28,24.877,44,23.997,44z M23.997,39.2c-1.77,0-3.2,1.44-3.2,3.2c0,1.76,1.43,3.2,3.2,3.2
	s3.2-1.44,3.2-3.2C27.197,40.64,25.767,39.2,23.997,39.2z"/>
<path fill-rule="evenodd" clip-rule="evenodd" fill="#E46B13" d="M20.797,4h3.2c0.44,0,0.8-0.36,0.8-0.8s-0.36-0.8-0.8-0.8h-3.2
	c-0.45,0-0.8,0.36-0.8,0.8S20.347,4,20.797,4z"/>
<path fill-rule="evenodd" clip-rule="evenodd" fill="#E46B13" d="M26.397,4h0.8c0.44,0,0.8-0.36,0.8-0.8s-0.36-0.8-0.8-0.8h-0.8
	c-0.44,0-0.8,0.36-0.8,0.8S25.957,4,26.397,4z"/>
<path fill-rule="evenodd" clip-rule="evenodd" fill="#E46B13" d="M45.287,3.66c-0.31-0.32-0.82-0.32-1.13,0
	c-0.32,0.31-0.32,0.81,0,1.12c2.98,2.99,2.98,7.86,0,10.85c-0.32,0.31-0.32,0.81,0,1.13c0.15,0.15,0.36,0.23,0.56,0.23
	c0.21,0,0.41-0.08,0.57-0.23C48.897,13.15,48.897,7.27,45.287,3.66z"/>
<path fill-rule="evenodd" clip-rule="evenodd" fill="#E46B13" d="M41.917,5.48c-0.31-0.32-0.82-0.32-1.13,0
	c-0.31,0.31-0.31,0.81,0,1.12c0.99,1,1.53,2.31,1.53,3.72c0,1.4-0.54,2.72-1.53,3.71c-0.31,0.31-0.31,0.82,0,1.13
	c0.16,0.16,0.36,0.23,0.57,0.23c0.2,0,0.41-0.07,0.56-0.23c1.29-1.29,2-3.01,2-4.84S43.207,6.77,41.917,5.48z"/>
<path fill-rule="evenodd" clip-rule="evenodd" fill="#E46B13" d="M3.837,4.78c0.31-0.31,0.31-0.81,0-1.12
	c-0.31-0.32-0.82-0.32-1.13,0c-3.61,3.61-3.61,9.48,0,13.1c0.16,0.15,0.36,0.23,0.56,0.23c0.21,0,0.41-0.08,0.57-0.23
	c0.31-0.32,0.31-0.82,0-1.13C0.847,12.64,0.847,7.78,3.837,4.78z"/>
<path fill-rule="evenodd" clip-rule="evenodd" fill="#E46B13" d="M7.207,5.25c-0.31-0.31-0.82-0.31-1.13,0
	c-1.29,1.3-2.01,3.02-2.01,4.85s0.72,3.55,2.01,4.84c0.15,0.15,0.36,0.23,0.57,0.23c0.2,0,0.41-0.08,0.56-0.23
	c0.31-0.32,0.31-0.82,0-1.13c-0.99-0.99-1.53-2.31-1.53-3.71c0-1.41,0.54-2.73,1.53-3.71C7.517,6.07,7.517,5.57,7.207,5.25z"/>
</svg>
