<?xml version="1.0" encoding="utf-8"?>
<!-- Generator: Adobe Illustrator 16.0.0, SVG Export Plug-In . SVG Version: 6.00 Build 0)  -->
<!DOCTYPE svg PUBLIC "-//W3C//DTD SVG 1.1//EN" "http://www.w3.org/Graphics/SVG/1.1/DTD/svg11.dtd">
<svg version="1.1" id="Layer_1" xmlns="http://www.w3.org/2000/svg" xmlns:xlink="http://www.w3.org/1999/xlink" x="0px" y="0px"
	 width="70px" height="66px" viewBox="0 0 70 66" enable-background="new 0 0 70 66" xml:space="preserve">
<path fill-rule="evenodd" clip-rule="evenodd" fill="#FFFFFF" d="M66.528,9.257c0-2.743-2.147-4.919-4.862-4.919h-26.59
	c-2.715,0-4.995,2.176-4.995,4.919v29.911l3.491-3.188c0.161-0.142,0.341-0.284,0.473-0.406c1.598-1.476,2.005-1.712,4.076-1.674
	l1.041,0.009h22.504c2.715,0,4.862-2.213,4.862-4.947V9.257z M70,9.257v19.704c0,4.664-3.708,8.447-8.334,8.447H39.162l-1.107-0.01
	c-0.322,0-0.681-0.009-0.813,0.01c-0.151,0.094-0.501,0.425-0.851,0.748l-0.454,0.416l-6.367,5.855
	c-0.51,0.463-1.258,0.586-1.892,0.312c-0.624-0.284-1.069-0.908-1.069-1.608v-18.56H8.428c-2.706,0-4.957,2.242-4.957,4.976v19.704
	c0,2.743,2.251,4.891,4.957,4.891h25.143c0.435,0,0.842,0.199,1.154,0.492l5.194,4.825v-16.64c0-0.965,0.775-1.75,1.731-1.75
	c0.965,0,1.741,0.785,1.741,1.75v20.612c0,0.69-0.397,1.315-1.022,1.589c-0.227,0.104-0.454,0.142-0.69,0.142
	c-0.426,0-0.842-0.18-1.173-0.473L32.9,57.642H8.428C3.803,57.642,0,53.924,0,49.251V29.547c0-4.664,3.803-8.476,8.428-8.476h18.181
	V9.257c0-4.673,3.841-8.419,8.466-8.419h26.59C66.292,0.838,70,4.584,70,9.257z M19.032,37.219c-0.965,0-1.741,0.785-1.741,1.75
	c0,0.965,0.776,1.75,1.741,1.75h0.142c0.955,0,1.731-0.785,1.731-1.75c0-0.965-0.776-1.75-1.731-1.75H19.032z M12.998,37.219
	c-0.956,0-1.741,0.785-1.741,1.75c0,0.965,0.785,1.75,1.741,1.75h0.142c0.965,0,1.74-0.785,1.74-1.75c0-0.965-0.775-1.75-1.74-1.75
	H12.998z M47.979,25.016c-0.956,0-1.693,0.785-1.693,1.75v0.019c0,0.965,0.738,1.741,1.693,1.741c0.955,0,1.74-0.785,1.74-1.759
	C49.719,25.801,48.934,25.016,47.979,25.016z M53.56,16.001c0,2.138-1.551,3.443-2.677,4.399c-0.426,0.359-1.22,1.021-1.22,1.267
	c0.009,0.965-0.757,1.741-1.721,1.741h-0.01c-0.955,0-1.731-0.757-1.731-1.712c-0.019-1.901,1.353-3.037,2.45-3.963
	c0.87-0.738,1.438-1.249,1.438-1.722c0-0.956-0.776-1.731-1.722-1.731c-0.946,0-1.712,0.775-1.712,1.731
	c0,0.965-0.775,1.75-1.74,1.75c-0.955,0-1.731-0.785-1.731-1.75c0-2.885,2.327-5.24,5.184-5.24
	C51.232,10.771,53.56,13.116,53.56,16.001z"/>
</svg>
