<?xml version="1.0" encoding="utf-8"?>
<!-- Generator: Adobe Illustrator 16.0.0, SVG Export Plug-In . SVG Version: 6.00 Build 0)  -->
<!DOCTYPE svg PUBLIC "-//W3C//DTD SVG 1.1//EN" "http://www.w3.org/Graphics/SVG/1.1/DTD/svg11.dtd">
<svg version="1.1" id="Layer_1" xmlns="http://www.w3.org/2000/svg" xmlns:xlink="http://www.w3.org/1999/xlink" x="0px" y="0px"
	 width="33px" height="32px" viewBox="0 0 33 32" enable-background="new 0 0 33 32" xml:space="preserve">
<path fill="#E36C25" d="M7.999,3c-0.45,0-0.86,0.14-1.21,0.41l-1.58,1.2c-1.46,1.11-2.07,3.04-1.5,4.79
	c2.91,8.97,9.96,16.209,18.861,19.35c1.56,0.561,3.39,0.13,4.55-1.04l1.8-1.819c0.37-0.381,0.58-0.881,0.58-1.41
	c0-0.75-0.42-1.431-1.09-1.78l-5.189-2.66c-0.201-0.11-0.461-0.011-0.561,0.08l-0.6,0.55c-1.5,1.37-3.811,1.68-5.621,0.76
	c-2.32-1.199-4.19-3.06-5.38-5.38c-0.95-1.84-0.65-4.1,0.75-5.62l0.55-0.6c0.06-0.07,0.14-0.18,0.14-0.34
	c0-0.08-0.02-0.15-0.06-0.22l-2.66-5.18C9.429,3.42,8.749,3,7.999,3z M24.019,32c-0.84,0-1.67-0.141-2.459-0.42
	c-9.771-3.46-17.511-11.4-20.701-21.25c-0.96-2.96,0.06-6.22,2.53-8.11l1.58-1.2C5.838,0.35,6.889,0,7.999,0
	c1.88,0,3.58,1.04,4.45,2.72l2.66,5.18c0.25,0.49,0.39,1.04,0.39,1.59c0,0.88-0.33,1.72-0.92,2.37l-0.56,0.6
	c-0.55,0.6-0.67,1.49-0.3,2.21c0.91,1.77,2.33,3.18,4.101,4.09c0.709,0.37,1.619,0.24,2.209-0.3l0.601-0.55
	c1.06-0.971,2.7-1.189,3.97-0.54l5.18,2.67c1.681,0.86,2.721,2.56,2.721,4.44c0,1.319-0.51,2.569-1.439,3.51l-1.811,1.83
	C27.879,31.2,25.97,32,24.019,32z"/>
</svg>
