<?xml version="1.0" encoding="utf-8"?>
<!-- Generator: Adobe Illustrator 16.0.0, SVG Export Plug-In . SVG Version: 6.00 Build 0)  -->
<!DOCTYPE svg PUBLIC "-//W3C//DTD SVG 1.1//EN" "http://www.w3.org/Graphics/SVG/1.1/DTD/svg11.dtd">
<svg version="1.1" id="Layer_1" xmlns="http://www.w3.org/2000/svg" xmlns:xlink="http://www.w3.org/1999/xlink" x="0px" y="0px"
	 width="70px" height="66px" viewBox="0 0 70 66" enable-background="new 0 0 70 66" xml:space="preserve">
<path fill-rule="evenodd" clip-rule="evenodd" fill="#FFFFFF" d="M33.91,43.108l0.22-0.01c0.55-0.06,1.06-0.35,1.4-0.81l12.65-16.92
	c0.68-0.92,0.5-2.22-0.39-2.91c-0.89-0.7-2.17-0.52-2.85,0.39L33.6,38.028l-5.72-4.99c-0.86-0.75-2.14-0.65-2.87,0.22
	c-0.73,0.88-0.63,2.19,0.22,2.93l7.36,6.42C32.96,42.938,33.43,43.108,33.91,43.108z M9.13,14.119c4.55-0.68,16.36-2.98,25.87-9.51
	c9.51,6.53,21.32,8.83,25.87,9.51c-0.16,3.46-0.81,11.43-3.35,19.96C53.17,48.708,45.6,58.019,35,61.739
	c-10.57-3.72-18.14-12.99-22.5-27.57C9.95,25.628,9.3,17.599,9.13,14.119z M35,65.999c0.21,0,0.42-0.03,0.62-0.1
	c6.78-2.22,12.56-6.47,17.17-12.64c3.62-4.86,6.53-10.91,8.63-17.98c3.54-11.92,3.58-22.54,3.58-22.99c0-1.06-0.8-1.96-1.84-2.06
	C63,10.208,47.2,8.559,36.2,0.398c-0.72-0.53-1.68-0.53-2.4,0c-11,8.16-26.8,9.81-26.96,9.83C5.8,10.329,5,11.219,5,12.289
	c0,0.45,0.04,11.07,3.58,22.99c2.1,7.07,5.01,13.12,8.63,17.98c4.61,6.17,10.39,10.42,17.17,12.64
	C34.58,65.969,34.79,65.999,35,65.999z"/>
</svg>
