<?xml version="1.0" encoding="utf-8"?>
<!-- Generator: Adobe Illustrator 16.0.0, SVG Export Plug-In . SVG Version: 6.00 Build 0)  -->
<!DOCTYPE svg PUBLIC "-//W3C//DTD SVG 1.1//EN" "http://www.w3.org/Graphics/SVG/1.1/DTD/svg11.dtd">
<svg version="1.1" id="Layer_1" xmlns="http://www.w3.org/2000/svg" xmlns:xlink="http://www.w3.org/1999/xlink" x="0px" y="0px"
	 width="64px" height="66px" viewBox="0 0 64 66" enable-background="new 0 0 64 66" xml:space="preserve">
<path fill-rule="evenodd" clip-rule="evenodd" fill="#FFFFFF" d="M49.163,15.988c1.259,0,2.489-0.329,3.57-0.958L63,9.073v-2.78
	l-11.554,6.594c-0.874,0.507-1.87,0.771-2.875,0.752L33.287,13.47c-0.771-0.282-1.381-0.451-1.606-0.545
	c-4.782-1.043-8.521-0.629-11.066,0.038c-1.907,0.507-3.945,0.319-5.749-0.498L1,6.227v24.941l1.437,0.771
	c2.123,1.137,3.814,2.894,4.876,5.026l-0.817,0.648c-2.189,1.568-2.659,4.584-1.221,6.716c0.799,1.034,1.935,1.7,3.232,1.926
	c0.15,0.009,0.385,0.019,0.545,0.019c0.469,0.028,0.93-0.019,1.325-0.084c0.028,1.071,0.281,2.001,0.93,2.875
	c0.864,1.183,2.236,1.719,3.71,1.794c0.385,0.028,0.78,0.038,1.08,0.066c-0.141,1.137,0.197,2.292,0.921,3.241
	c0.798,1.033,1.935,1.7,3.232,1.926c0.15,0.009,0.376,0.019,0.545,0.019c1.155,0.065,2.264-0.254,3.156-0.893l0.479-0.367
	c0.113,0.686,0.319,1.315,0.752,1.879c0.648,0.874,1.634,1.456,2.79,1.672c0.15,0.009,0.301,0.009,0.47,0.019
	c0.93,0.057,1.87-0.207,2.687-0.77h0.075l0.573,0.789c1.005,1.418,3.091,1.757,4.537,0.77c1.212-0.845,1.691-2.508,1.146-3.833
	l0.103,0.151c0.949,1.381,2.762,1.982,4.331,1.343c1.748-0.695,2.443-2.546,1.992-4.124c1.165,1.287,3.175,1.531,4.631,0.545
	l0.075-0.075c1.447-0.986,1.869-2.865,1.089-4.368c1.259,1.137,3.269,1.315,4.726,0.329c1.69-1.212,2.132-3.551,0.902-5.223
	l-1.813-2.527l3.936-4.5c1.034-1.184,2.264-2.18,3.636-2.969L63,32.859v-2.969l-2.668,1.484c-1.531,0.855-2.903,1.944-4.049,3.26
	l-4.227,4.8c-1.259-1.127-3.269-1.306-4.716-0.32c-1.691,1.212-2.132,3.542-0.902,5.214l0.066,0.169h-0.075
	c-1.203-0.827-2.828-0.912-4.115-0.066l-0.075,0.076c-1.127,0.77-1.663,2.123-1.428,3.429l-0.404,0.291
	c-1.127-0.592-2.527-0.592-3.664,0.188c-1.042,0.705-1.578,1.973-1.484,3.119l-1.128,0.695c-0.836-0.198-1.775-0.009-2.499,0.479
	c-0.892,0.629-1.418,1.682-1.39,2.667l-0.564,0.348c-0.328,0.291-0.873,0.413-1.334,0.31c-0.451-0.094-0.911-0.348-1.202-0.742
	c-0.291-0.329-0.423-0.864-0.319-1.315c0.103-0.451,0.357-0.893,0.76-1.184l6.068-4.481c0.32-0.216,0.498-0.507,0.507-0.883
	c0.038-0.686-0.554-1.278-1.249-1.278c-0.263,0-0.479,0.066-0.705,0.188l-9.695,6.895c-0.564,0.348-1.193,0.545-1.888,0.432
	c-0.686-0.113-1.297-0.451-1.654-0.996c-0.799-1.042-0.554-2.621,0.573-3.401l11.554-8.088c0.254-0.216,0.432-0.535,0.432-0.949
	c0.009-0.648-0.535-1.193-1.193-1.221c-0.385-0.009-0.695,0.131-0.948,0.413l-11.301,8.022c-0.319,0.141-0.488,0.367-0.732,0.583
	c-1.362,0.845-3.363,0.658-4.096-0.291c-0.723-1.024-0.573-2.396,0.339-3.26l1.127-0.771l12.57-8.417
	c0.319-0.207,0.498-0.507,0.507-0.883c0.028-0.414-0.178-0.799-0.517-1.034c-0.451-0.319-0.893-0.329-1.362-0.056L12.461,42.3
	c-0.085,0.15-0.244,0.207-0.329,0.282l-1.296,0.93c-1.062,0.78-2.677,0.545-3.467-0.563c-0.798-1.043-0.554-2.621,0.573-3.4
	L33.325,21.22c2.029,1.174,3.532,3.532,3.532,3.532c2.499,7.656,5.599,7.722,7.478,6.801c0.987-0.479,1.428-1.615,1.09-2.64
	c-0.996-2.95-1.569-8.68-1.569-8.68c-0.695-1.484-2.94-3.044-5.43-4.321l8.154,0.122L49.163,15.988z"/>
</svg>
