<?xml version="1.0" encoding="utf-8"?>
<!-- Generator: Adobe Illustrator 16.0.0, SVG Export Plug-In . SVG Version: 6.00 Build 0)  -->
<!DOCTYPE svg PUBLIC "-//W3C//DTD SVG 1.1//EN" "http://www.w3.org/Graphics/SVG/1.1/DTD/svg11.dtd">
<svg version="1.1" id="Layer_1" xmlns="http://www.w3.org/2000/svg" xmlns:xlink="http://www.w3.org/1999/xlink" x="0px" y="0px"
	 width="70px" height="66px" viewBox="0 0 70 66" enable-background="new 0 0 70 66" xml:space="preserve">
<path fill-rule="evenodd" clip-rule="evenodd" fill="#FFFFFF" d="M31.538,2.72C33.446,2.72,35,4.255,35,6.145
	c0,1.889-1.554,3.424-3.462,3.424c-0.642,0-1.154,0.512-1.154,1.145c0,0.633,0.511,1.145,1.154,1.145
	c3.183,0,5.779-2.559,5.779-5.713c0-3.155-2.596-5.714-5.779-5.714c-0.642,0-1.154,0.512-1.154,1.145S30.896,2.72,31.538,2.72z
	 M38.471,2.72c1.907,0,3.462,1.535,3.462,3.425c0,1.889-1.554,3.424-3.462,3.424c-0.642,0-1.154,0.512-1.154,1.145
	c0,0.633,0.511,1.145,1.154,1.145c3.182,0,5.779-2.559,5.779-5.713c0-3.155-2.596-5.714-5.779-5.714
	c-0.642,0-1.154,0.512-1.154,1.145S37.829,2.72,38.471,2.72z M28.067,27.854c0-0.633-0.511-1.145-1.154-1.145
	s-1.154,0.512-1.154,1.145s0.512,1.145,1.154,1.145S28.067,28.487,28.067,27.854z M36.154,27.854c0-0.633-0.512-1.145-1.154-1.145
	c-0.633,0-1.154,0.512-1.154,1.145s0.521,1.145,1.154,1.145C35.642,28.999,36.154,28.487,36.154,27.854z M44.25,27.854
	c0-0.633-0.521-1.145-1.163-1.145c-0.633,0-1.154,0.512-1.154,1.145s0.521,1.145,1.154,1.145
	C43.729,28.999,44.25,28.487,44.25,27.854z M52.327,27.854c0-0.633-0.512-1.145-1.154-1.145s-1.153,0.512-1.153,1.145
	s0.511,1.145,1.153,1.145S52.327,28.487,52.327,27.854z M60.414,27.854c0-0.633-0.512-1.145-1.154-1.145
	c-0.632,0-1.153,0.512-1.153,1.145s0.521,1.145,1.153,1.145C59.901,28.999,60.414,28.487,60.414,27.854z M11.894,37.001
	c0-0.632-0.512-1.145-1.154-1.145c-0.642,0-1.154,0.512-1.154,1.145c0,0.633,0.512,1.136,1.154,1.136
	C11.383,38.137,11.894,37.634,11.894,37.001z M19.981,37.001c0-0.632-0.512-1.145-1.154-1.145c-0.633,0-1.154,0.512-1.154,1.145
	c0,0.633,0.521,1.136,1.154,1.136C19.469,38.137,19.981,37.634,19.981,37.001z M28.067,37.001c0-0.632-0.511-1.145-1.154-1.145
	s-1.154,0.512-1.154,1.145c0,0.633,0.512,1.136,1.154,1.136S28.067,37.634,28.067,37.001z M36.154,37.001
	c0-0.632-0.512-1.145-1.154-1.145c-0.633,0-1.154,0.512-1.154,1.145c0,0.633,0.521,1.136,1.154,1.136
	C35.642,38.137,36.154,37.634,36.154,37.001z M44.25,37.001c0-0.632-0.521-1.145-1.163-1.145c-0.633,0-1.154,0.512-1.154,1.145
	c0,0.633,0.521,1.136,1.154,1.136C43.729,38.137,44.25,37.634,44.25,37.001z M52.327,37.001c0-0.632-0.512-1.145-1.154-1.145
	s-1.153,0.512-1.153,1.145c0,0.633,0.511,1.136,1.153,1.136S52.327,37.634,52.327,37.001z M60.414,37.001
	c0-0.632-0.512-1.145-1.154-1.145c-0.632,0-1.153,0.512-1.153,1.145c0,0.633,0.521,1.136,1.153,1.136
	C59.901,38.137,60.414,37.634,60.414,37.001z M11.894,44.995c0-0.633-0.512-1.145-1.154-1.145c-0.642,0-1.154,0.511-1.154,1.145
	c0,0.632,0.512,1.145,1.154,1.145C11.383,46.14,11.894,45.627,11.894,44.995z M19.981,44.995c0-0.633-0.512-1.145-1.154-1.145
	c-0.633,0-1.154,0.511-1.154,1.145c0,0.632,0.521,1.145,1.154,1.145C19.469,46.14,19.981,45.627,19.981,44.995z M28.067,44.995
	c0-0.633-0.511-1.145-1.154-1.145s-1.154,0.511-1.154,1.145c0,0.632,0.512,1.145,1.154,1.145S28.067,45.627,28.067,44.995z
	 M36.154,44.995c0-0.633-0.512-1.145-1.154-1.145c-0.633,0-1.154,0.511-1.154,1.145c0,0.632,0.521,1.145,1.154,1.145
	C35.642,46.14,36.154,45.627,36.154,44.995z M44.25,44.995c0-0.633-0.521-1.145-1.163-1.145c-0.633,0-1.154,0.511-1.154,1.145
	c0,0.632,0.521,1.145,1.154,1.145C43.729,46.14,44.25,45.627,44.25,44.995z M52.327,44.995c0-0.633-0.512-1.145-1.154-1.145
	s-1.153,0.511-1.153,1.145c0,0.632,0.511,1.145,1.153,1.145S52.327,45.627,52.327,44.995z M60.414,44.995
	c0-0.633-0.512-1.145-1.154-1.145c-0.632,0-1.153,0.511-1.153,1.145c0,0.632,0.521,1.145,1.153,1.145
	C59.901,46.14,60.414,45.627,60.414,44.995z M11.894,54.143c0-0.633-0.512-1.145-1.154-1.145c-0.642,0-1.154,0.511-1.154,1.145
	c0,0.632,0.512,1.135,1.154,1.135C11.383,55.277,11.894,54.775,11.894,54.143z M19.981,54.143c0-0.633-0.512-1.145-1.154-1.145
	c-0.633,0-1.154,0.511-1.154,1.145c0,0.632,0.521,1.135,1.154,1.135C19.469,55.277,19.981,54.775,19.981,54.143z M28.067,54.143
	c0-0.633-0.511-1.145-1.154-1.145s-1.154,0.511-1.154,1.145c0,0.632,0.512,1.135,1.154,1.135S28.067,54.775,28.067,54.143z
	 M36.154,54.143c0-0.633-0.512-1.145-1.154-1.145c-0.633,0-1.154,0.511-1.154,1.145c0,0.632,0.521,1.135,1.154,1.135
	C35.642,55.277,36.154,54.775,36.154,54.143z M44.25,54.143c0-0.633-0.521-1.145-1.163-1.145c-0.633,0-1.154,0.511-1.154,1.145
	c0,0.632,0.521,1.135,1.154,1.135C43.729,55.277,44.25,54.775,44.25,54.143z M66.192,63.28H3.817V19.86h62.375V63.28z M51.061,5
	c-0.539-2.605-2.875-4.569-5.667-4.569c-0.633,0-1.145,0.512-1.145,1.145s0.512,1.145,1.145,1.145c1.917,0,3.471,1.535,3.471,3.425
	c0,1.889-1.554,3.424-3.471,3.424c-0.633,0-1.145,0.512-1.145,1.145c0,0.633,0.512,1.145,1.145,1.145
	c2.792,0,5.128-1.963,5.667-4.568h15.131v10.282H3.817V7.289h19.634c0.633,0,1.154-0.512,1.154-1.145
	C24.606,5.511,24.084,5,23.452,5h-2.103c0.484-1.331,1.749-2.28,3.257-2.28c1.907,0,3.461,1.535,3.461,3.425
	c0,1.889-1.554,3.424-3.461,3.424c-0.642,0-1.154,0.512-1.154,1.145c0,0.633,0.512,1.145,1.154,1.145
	c3.182,0,5.779-2.559,5.779-5.713c0-3.155-2.596-5.714-5.779-5.714c-2.792,0-5.127,1.963-5.658,4.569H1.5v60.57h67V5H51.061z"/>
</svg>
