<?xml version="1.0" encoding="utf-8"?>
<!-- Generator: Adobe Illustrator 16.0.0, SVG Export Plug-In . SVG Version: 6.00 Build 0)  -->
<!DOCTYPE svg PUBLIC "-//W3C//DTD SVG 1.1//EN" "http://www.w3.org/Graphics/SVG/1.1/DTD/svg11.dtd">
<svg version="1.1" id="Layer_1" xmlns="http://www.w3.org/2000/svg" xmlns:xlink="http://www.w3.org/1999/xlink" x="0px" y="0px"
	 width="70px" height="66px" viewBox="0 0 70 66" enable-background="new 0 0 70 66" xml:space="preserve">
<path fill-rule="evenodd" clip-rule="evenodd" fill="#FFFFFF" d="M51.672,27.503H23.888c-0.615,0-1.112,0.488-1.112,1.103
	c0,0.606,0.497,1.094,1.112,1.094h27.783c0.615,0,1.112-0.488,1.112-1.094C52.784,27.991,52.287,27.503,51.672,27.503z
	 M23.888,20.903H35c0.615,0,1.112-0.488,1.112-1.104c0-0.605-0.497-1.094-1.112-1.094H23.888c-0.615,0-1.112,0.488-1.112,1.094
	C22.776,20.415,23.273,20.903,23.888,20.903z M51.672,36.3H23.888c-0.615,0-1.112,0.488-1.112,1.104
	c0,0.605,0.497,1.094,1.112,1.094h27.783c0.615,0,1.112-0.488,1.112-1.094C52.784,36.788,52.287,36.3,51.672,36.3z M51.672,45.097
	H23.888c-0.615,0-1.112,0.498-1.112,1.104c0,0.605,0.497,1.094,1.112,1.094h27.783c0.615,0,1.112-0.488,1.112-1.094
	C52.784,45.594,52.287,45.097,51.672,45.097z M51.672,53.903H23.888c-0.615,0-1.112,0.488-1.112,1.094s0.497,1.103,1.112,1.103
	h27.783c0.615,0,1.112-0.497,1.112-1.103S52.287,53.903,51.672,53.903z M16.113,63.794V7.703h27.783V23.1h15.56v40.694H16.113z
	 M10.553,58.297V2.206h43.343v11.645L45.46,5.497H13.889v52.8H10.553z M46.112,9.258l11.762,11.645H46.112V9.258z M56.111,16.048V0
	H8.329v60.503h5.56V66h47.782V21.545L56.111,16.048z"/>
</svg>
