<?xml version="1.0" encoding="utf-8"?>
<!-- Generator: Adobe Illustrator 16.0.0, SVG Export Plug-In . SVG Version: 6.00 Build 0)  -->
<!DOCTYPE svg PUBLIC "-//W3C//DTD SVG 1.1//EN" "http://www.w3.org/Graphics/SVG/1.1/DTD/svg11.dtd">
<svg version="1.1" id="Layer_1" xmlns="http://www.w3.org/2000/svg" xmlns:xlink="http://www.w3.org/1999/xlink" x="0px" y="0px"
	 width="33px" height="32px" viewBox="0 0 33 32" enable-background="new 0 0 33 32" xml:space="preserve">
<path fill="#E36C25" d="M3.203,26.229V10.579l12.489,10.054c0.389,0.317,0.849,0.481,1.319,0.481c0.471,0,0.42-0.164,0.808-0.481
	l11.978-10.054v15.649H3.203z M29.797,5.771V6.58L16.5,17.728L3.203,6.58V5.771H29.797z M2.181,2.703
	c-1.125,0-2.046,0.92-2.046,2.046v22.502c0,1.125,0.92,2.046,2.046,2.046h28.639c1.125,0,2.046-0.921,2.046-2.046V4.749
	c0-1.125-0.921-2.046-2.046-2.046H2.181z"/>
</svg>
