<?xml version="1.0" encoding="utf-8"?>
<!-- Generator: Adobe Illustrator 16.0.0, SVG Export Plug-In . SVG Version: 6.00 Build 0)  -->
<!DOCTYPE svg PUBLIC "-//W3C//DTD SVG 1.1//EN" "http://www.w3.org/Graphics/SVG/1.1/DTD/svg11.dtd">
<svg version="1.1" id="Layer_1" xmlns="http://www.w3.org/2000/svg" xmlns:xlink="http://www.w3.org/1999/xlink" x="0px" y="0px"
	 width="68.83px" height="82.672px" viewBox="0 -23.672 68.83 82.672" enable-background="new 0 -23.672 68.83 82.672"
	 xml:space="preserve">
<path fill="#636363" d="M2.005,21.892h4.25V0.362h-4.25V21.892z M14.226,20.472c2.18,1.37,5.21,2.05,9.07,2.05
	c3.31,0,6.22-0.51,8.72-1.54c2.5-1.02,3.75-2.73,3.75-5.11c0-1.92-0.98-3.38-2.96-4.38c-1.14-0.58-2.76-1.04-4.86-1.37l-4.35-0.69
	c-2.94-0.47-4.82-0.85-5.65-1.17c-1.26-0.48-1.9-1.271-1.9-2.32c0-0.95,0.54-1.8,1.62-2.52c1.09-0.72,2.87-1.08,5.35-1.08
	c3.08,0,5.25,0.56,6.54,1.68c0.69,0.62,1.14,1.5,1.35,2.65h3.95c0-2.39-1.14-4.13-3.41-5.22c-2.28-1.09-5.04-1.63-8.3-1.63
	c-3.54,0-6.27,0.62-8.2,1.86c-1.93,1.24-2.9,2.83-2.9,4.76c0,1.79,0.99,3.13,2.96,4.03c1.15,0.52,3.09,0.99,5.84,1.42l4.21,0.66
	c2.28,0.37,3.95,0.79,5.03,1.28c1.05,0.5,1.58,1.34,1.58,2.51c0,1.56-1.25,2.64-3.76,3.25c-1.3,0.31-2.73,0.47-4.31,0.47
	c-3.53,0-5.98-0.71-7.38-2.14c-0.73-0.76-1.15-1.76-1.25-2.98h-3.95C10.965,17.272,12.045,19.122,14.226,20.472z M41.756,3.762
	c-2.09,2.07-3.131,4.57-3.131,7.479c0,3.22,1.221,5.89,3.66,8c2.73,2.19,6.48,3.28,11.26,3.28c5.121,0,9.051-1.24,11.82-3.75
	c2.35-2.13,3.53-4.8,3.53-8.02c0-2.97-1.03-5.41-3.09-7.32c-2.63-2.44-6.69-3.66-12.181-3.66
	C48.386-0.228,44.426,1.102,41.756,3.762z M45.586,17.462c-1.74-1.64-2.61-3.65-2.61-6.04c0-2.98,1.021-5.23,3.04-6.76
	c2.04-1.53,4.66-2.3,7.87-2.3c3.31,0,5.92,0.78,7.829,2.32c1.91,1.54,2.871,3.58,2.871,6.11c0,2.4-0.83,4.52-2.49,6.36
	c-1.65,1.84-4.34,2.77-8.04,2.77C50.155,19.922,47.326,19.102,45.586,17.462z M62.655,34.262v18.76h6.07V25.802h-4.31
	c-0.69,3.3-4.511,4.229-7.601,4.189v4.27H62.655z M38.136,33.072v12.949c0,5.371,3.09,7.67,8.44,7.67c6.529,0,8.51-2.93,8.51-9.01
	v-10.01c0.119-6.23-1.561-9.46-8.431-9.46C41.186,25.212,38.136,27.512,38.136,33.072z M48.715,45.572c0,0.959,0.111,3.41-2.06,3.49
	c-2.14,0-2.14-1.861-2.14-3.49v-12.5c0-1.561,0.08-3.22,2.14-3.22c2.29,0,2.06,2.81,2.06,3.22V45.572z M19.036,33.072v12.949
	c0,5.371,3.09,7.67,8.44,7.67c6.53,0,8.521-2.93,8.521-9.01v-10.01c0.109-6.23-1.571-9.46-8.44-9.46
	C22.096,25.212,19.036,27.512,19.036,33.072z M29.616,45.572c0,0.959,0.11,3.41-2.06,3.49c-2.14,0-2.14-1.861-2.14-3.49v-12.5
	c0-1.561,0.07-3.22,2.14-3.22c2.29,0,2.06,2.81,2.06,3.22V45.572z M6.396,46.492h-6.08c0.19,5.6,3.28,7.199,8.71,7.199
	c7.18,0,7.94-5.561,7.94-11.35v-7.34c0-5.57-1.87-9.79-8.28-9.79c-7.07,0-8.79,3.97-8.79,10.239c0,4.191,1.15,8.34,6.34,8.34
	c1.91,0,2.83-0.26,4.36-1.369v1.85c0,1.6,0.34,4.791-2.11,4.791C6.775,49.063,6.425,47.941,6.396,46.492z M6.275,34.781
	c0-1.479-0.19-4.929,2.18-4.929c2.63,0,2.17,3.371,2.17,5.109c0,1.561,0.23,4.191-2.1,4.191C6.085,39.152,6.275,36.482,6.275,34.781
	z M0.896,56.992v1.779h67.91v-1.779H0.896z"/>
<g>
	<path fill="#919191" d="M15.278-19.173h-2.831v1.827h3.162v1.427H10.7v-7.695h4.75v1.427h-3.002v1.599h2.831V-19.173z"/>
	<path fill="#919191" d="M23.304-18.866c-0.034-0.924-0.069-2.043-0.069-3.162h-0.034c-0.239,0.981-0.559,2.077-0.856,2.979
		l-0.936,3.003H20.05l-0.822-2.98c-0.251-0.9-0.513-1.997-0.696-3.001h-0.023c-0.046,1.039-0.08,2.226-0.137,3.185l-0.137,2.923
		h-1.61l0.491-7.695h2.318l0.753,2.568c0.24,0.891,0.479,1.851,0.65,2.751h0.034c0.217-0.89,0.48-1.906,0.73-2.762l0.823-2.558
		h2.271l0.423,7.695h-1.702L23.304-18.866z"/>
	<path fill="#919191" d="M26.454-23.512c0.537-0.092,1.29-0.16,2.352-0.16c1.073,0,1.838,0.206,2.352,0.617
		c0.491,0.388,0.822,1.028,0.822,1.781s-0.251,1.393-0.707,1.827c-0.594,0.56-1.474,0.811-2.5,0.811
		c-0.229,0-0.435-0.012-0.594-0.035v2.751h-1.724V-23.512z M28.178-20.019c0.148,0.035,0.331,0.045,0.582,0.045
		c0.925,0,1.496-0.467,1.496-1.255c0-0.708-0.491-1.131-1.359-1.131c-0.354,0-0.594,0.035-0.719,0.07V-20.019z"/>
	<path fill="#919191" d="M33.086-23.512c0.56-0.092,1.393-0.16,2.318-0.16c1.141,0,1.94,0.171,2.488,0.604
		c0.456,0.366,0.708,0.902,0.708,1.61c0,0.982-0.696,1.655-1.358,1.896v0.034c0.536,0.217,0.833,0.73,1.027,1.438
		c0.239,0.867,0.479,1.872,0.628,2.169h-1.781c-0.126-0.217-0.308-0.845-0.537-1.792c-0.206-0.959-0.536-1.222-1.244-1.234H34.81
		v3.026h-1.724V-23.512z M34.81-20.201h0.685c0.867,0,1.382-0.434,1.382-1.108c0-0.708-0.479-1.062-1.28-1.073
		c-0.421,0-0.661,0.035-0.787,0.057V-20.201z"/>
	<path fill="#919191" d="M44.433-19.173h-2.831v1.827h3.163v1.427h-4.909v-7.695h4.748v1.427h-3.002v1.599h2.831V-19.173z"/>
	<path fill="#919191" d="M46.008-17.712c0.468,0.239,1.187,0.479,1.93,0.479c0.799,0,1.222-0.332,1.222-0.833
		c0-0.479-0.365-0.753-1.29-1.084c-1.279-0.446-2.112-1.154-2.112-2.272c0-1.313,1.095-2.318,2.911-2.318
		c0.868,0,1.507,0.183,1.963,0.388l-0.388,1.404c-0.308-0.147-0.856-0.364-1.608-0.364c-0.755,0-1.119,0.341-1.119,0.742
		c0,0.491,0.434,0.708,1.427,1.084c1.358,0.503,1.996,1.211,1.996,2.295c0,1.29-0.992,2.386-3.104,2.386
		c-0.878,0-1.746-0.228-2.18-0.467L46.008-17.712z"/>
	<path fill="#919191" d="M53.907-17.896L53.36-15.92h-1.805l2.352-7.695h2.283l2.388,7.695h-1.874l-0.593-1.976H53.907z
		 M55.861-19.196l-0.48-1.632c-0.138-0.458-0.274-1.028-0.389-1.484H54.97c-0.115,0.457-0.229,1.039-0.354,1.484l-0.457,1.632
		H55.861z"/>
</g>
<g>
	<path fill="#919191" d="M6.762-5.322c-0.32,0.159-1.039,0.331-1.975,0.331c-2.66,0-4.03-1.655-4.03-3.848
		c0-2.625,1.872-4.087,4.202-4.087c0.902,0,1.587,0.184,1.896,0.343L6.5-11.202c-0.354-0.148-0.845-0.285-1.461-0.285
		c-1.382,0-2.455,0.833-2.455,2.545C2.583-7.4,3.497-6.43,5.05-6.43c0.525,0,1.107-0.114,1.45-0.25L6.762-5.322z"/>
	<path fill="#919191" d="M12.481-8.358H9.65v1.827h3.162v1.426H7.903V-12.8h4.75v1.427H9.65v1.599h2.831V-8.358z"/>
	<path fill="#919191" d="M13.999-12.697c0.559-0.092,1.393-0.161,2.318-0.161c1.142,0,1.94,0.171,2.488,0.605
		c0.457,0.365,0.708,0.902,0.708,1.61c0,0.982-0.696,1.655-1.358,1.896v0.033c0.537,0.217,0.833,0.731,1.028,1.438
		c0.24,0.867,0.479,1.873,0.628,2.169h-1.781c-0.126-0.217-0.308-0.844-0.537-1.792c-0.206-0.959-0.537-1.222-1.245-1.234h-0.525
		v3.026h-1.724V-12.697z M15.723-9.386h0.685c0.868,0,1.382-0.434,1.382-1.108c0-0.708-0.48-1.061-1.279-1.073
		c-0.422,0-0.662,0.035-0.788,0.058V-9.386z"/>
	<path fill="#919191" d="M22.252-11.338h-2.066V-12.8H26.1v1.461h-2.101v6.233h-1.747V-11.338z"/>
	<path fill="#919191" d="M28.771-12.8v7.695h-1.747V-12.8H28.771z"/>
	<path fill="#919191" d="M30.277-12.8h4.704v1.427h-2.957v1.758h2.763v1.416h-2.763v3.094h-1.747V-12.8z"/>
	<path fill="#919191" d="M38.039-12.8v7.695h-1.746V-12.8H38.039z"/>
	<path fill="#919191" d="M45.198-5.322c-0.321,0.159-1.04,0.331-1.976,0.331c-2.66,0-4.031-1.655-4.031-3.848
		c0-2.625,1.872-4.087,4.202-4.087c0.902,0,1.588,0.184,1.896,0.343l-0.354,1.381c-0.354-0.148-0.846-0.285-1.462-0.285
		c-1.382,0-2.455,0.833-2.455,2.545c0,1.542,0.914,2.512,2.466,2.512c0.525,0,1.108-0.114,1.451-0.25L45.198-5.322z"/>
	<path fill="#919191" d="M48.244-7.08l-0.548,1.975h-1.804l2.352-7.695h2.282l2.388,7.695h-1.873L50.446-7.08H48.244z M50.197-8.381
		l-0.481-1.633c-0.137-0.458-0.273-1.028-0.388-1.484h-0.021c-0.115,0.456-0.228,1.038-0.354,1.484l-0.458,1.633H50.197z"/>
	<path fill="#919191" d="M53.939-12.697c0.64-0.103,1.475-0.161,2.353-0.161c1.461,0,2.409,0.262,3.15,0.823
		c0.8,0.593,1.304,1.54,1.304,2.898c0,1.474-0.538,2.489-1.279,3.117c-0.812,0.675-2.045,0.995-3.552,0.995
		c-0.902,0-1.542-0.058-1.976-0.115V-12.697z M55.688-6.417c0.146,0.035,0.388,0.035,0.604,0.035
		c1.576,0.011,2.604-0.856,2.604-2.695c0.011-1.598-0.927-2.444-2.423-2.444c-0.388,0-0.64,0.035-0.786,0.07V-6.417z"/>
	<path fill="#919191" d="M63.494-7.08l-0.546,1.975h-1.804l2.35-7.695h2.286l2.385,7.695h-1.871L65.7-7.08H63.494z M65.448-8.381
		l-0.479-1.633c-0.137-0.458-0.276-1.028-0.389-1.484h-0.024c-0.112,0.456-0.228,1.038-0.353,1.484l-0.458,1.633H65.448z"/>
</g>
</svg>
