<?xml version="1.0" encoding="utf-8"?>
<!-- Generator: Adobe Illustrator 16.0.0, SVG Export Plug-In . SVG Version: 6.00 Build 0)  -->
<!DOCTYPE svg PUBLIC "-//W3C//DTD SVG 1.1//EN" "http://www.w3.org/Graphics/SVG/1.1/DTD/svg11.dtd">
<svg version="1.1" id="Layer_1" xmlns="http://www.w3.org/2000/svg" xmlns:xlink="http://www.w3.org/1999/xlink" x="0px" y="0px"
	 width="230px" height="72px" viewBox="44.332 -0.032 230 72" enable-background="new 44.332 -0.032 230 72" xml:space="preserve">
<g>
	<circle opacity="0.5" fill="none" stroke="#FFFFFF" stroke-miterlimit="10" cx="78.562" cy="33.281" r="31.078"/>
	<circle opacity="0.5" fill="none" stroke="#FFFFFF" stroke-miterlimit="10" cx="78.562" cy="33.281" r="28.981"/>
	<circle opacity="0.5" fill="none" stroke="#FFFFFF" stroke-miterlimit="10" cx="78.562" cy="33.281" r="26.885"/>
	<circle opacity="0.5" fill="none" stroke="#FFFFFF" stroke-miterlimit="10" cx="78.562" cy="33.281" r="24.788"/>
	<circle opacity="0.5" fill="none" stroke="#FFFFFF" stroke-miterlimit="10" cx="78.562" cy="33.281" r="22.692"/>
	<circle opacity="0.5" fill="none" stroke="#FFFFFF" stroke-miterlimit="10" cx="78.562" cy="33.281" r="20.594"/>
	<circle opacity="0.5" fill="none" stroke="#FFFFFF" stroke-miterlimit="10" cx="78.562" cy="33.281" r="18.498"/>
	<circle opacity="0.5" fill="none" stroke="#FFFFFF" stroke-miterlimit="10" cx="78.562" cy="33.28" r="16.4"/>
	<circle opacity="0.5" fill="none" stroke="#FFFFFF" stroke-miterlimit="10" cx="78.562" cy="33.282" r="14.304"/>
	<circle opacity="0.5" fill="none" stroke="#FFFFFF" stroke-miterlimit="10" cx="78.562" cy="33.281" r="12.208"/>
	<path fill="#FFFFFF" d="M124.587,43.579V24.185h10.989c3.839,0,5.67,2.502,5.67,4.943c0,2.413-1.482,4.041-3.315,4.448
		c2.065,0.318,3.693,2.297,3.693,4.742c0,2.819-1.891,5.263-5.698,5.263h-11.339V43.579L124.587,43.579z M136.158,30
		c0-0.93-0.697-1.6-1.716-1.6h-4.854v3.227h4.854C135.461,31.628,136.158,30.96,136.158,30z M136.536,37.618
		c0-0.959-0.697-1.745-1.919-1.745h-5.029v3.489h5.029C135.81,39.364,136.536,38.665,136.536,37.618z"/>
	<path fill="#FFFFFF" d="M144.354,43.579V24.185h5.001v15.033h7.792v4.361H144.354z"/>
	<path fill="#FFFFFF" d="M158.743,33.895c0-5.902,4.449-10.029,10.381-10.029s10.35,4.128,10.35,10.029
		c0,5.903-4.418,10.032-10.35,10.032S158.743,39.799,158.743,33.895z M174.385,33.895c0-3.169-2.064-5.61-5.262-5.61
		c-3.227,0-5.293,2.441-5.293,5.61c0,3.142,2.066,5.612,5.293,5.612C172.322,39.509,174.385,37.037,174.385,33.895z"/>
	<path fill="#FFFFFF" d="M181.012,33.895c0-5.989,4.537-10.029,10.496-10.029c4.683,0,7.183,2.646,8.46,5.205l-4.304,2.035
		c-0.641-1.542-2.298-2.82-4.159-2.82c-3.169,0-5.406,2.441-5.406,5.61c0,3.171,2.238,5.612,5.406,5.612
		c1.86,0,3.519-1.278,4.159-2.819l4.304,2.035c-1.249,2.5-3.777,5.204-8.46,5.204C185.549,43.927,181.012,39.857,181.012,33.895z"/>
	<path fill="#FFFFFF" d="M213.513,43.579l-5.088-7.298l-1.31,1.628v5.67h-5.002V24.185h5.002v7.967l5.962-7.966h6.163l-7.529,9.072
		l7.938,10.322L213.513,43.579L213.513,43.579z"/>
	<path fill="#FFFFFF" d="M219.732,40.845l2.646-3.75c1.396,1.396,3.546,2.559,6.192,2.559c1.716,0,2.761-0.668,2.761-1.599
		c0-2.647-10.988-0.524-10.988-7.996c0-3.258,2.762-6.164,7.734-6.164c3.11,0,5.814,0.931,7.88,2.704l-2.733,3.576
		c-1.628-1.337-3.75-2.006-5.67-2.006c-1.454,0-2.093,0.583-2.093,1.396c0,2.472,10.962,0.669,10.962,7.88
		c0,3.896-2.879,6.482-8.085,6.482C224.412,43.927,221.68,42.707,219.732,40.845z"/>
	<path fill="#FFFFFF" d="M251.914,43.579l-0.959-2.792h-7.646l-0.958,2.792h-5.67l7.298-19.394h6.28l7.328,19.394H251.914z
		 M247.116,29.129l-2.471,7.299h4.943L247.116,29.129z"/>
	<path fill="#FFFFFF" d="M263.337,43.579V28.546H257.9v-4.361h15.847v4.361h-5.407v15.033H263.337z"/>
	<g opacity="0.5">
		<path fill="#FFFFFF" d="M105.809,19.88c-0.187-0.398-0.612-0.644-1.051-0.596l-58.87-0.25c-0.456,0.048-0.882,0.375-0.921,0.835
			c-0.046,0.53,0,0.57,0.525,1.128l18.491,19.417l0.504,26.425c-0.004,0.496-0.021,1.805,0.161,2.031c0.063,0.079-0.027-0.068,0,0
			c0.107,0.269,0.521,0.412,0.574,0.433c0.372,0.127,0.636-0.234,0.923-0.521l39.452-47.708
			C105.91,20.76,105.992,20.286,105.809,19.88L105.809,19.88z"/>
	</g>
	<g>
		<path fill="#FFFFFF" d="M115.229,16.267c-0.235-0.507-0.775-0.818-1.331-0.756l-67.766,3.3c-0.577,0.06-1.578,0.674-1.081,1.681
			c0,0-0.458-1.046,2.086,0.523l27.097,15.424l-8.019,28.907c-1.153,4.949-1.568,3.524-1.568,3.524
			c0.064,0.045,0.038,0.457,0.751,0.772c0.457,0.2,1.006,0.053,1.369-0.311l48.194-51.553
			C115.359,17.382,115.465,16.78,115.229,16.267L115.229,16.267z"/>
	</g>
</g>
</svg>
