<?xml version="1.0" encoding="utf-8"?>
<!-- Generator: Adobe Illustrator 16.0.0, SVG Export Plug-In . SVG Version: 6.00 Build 0)  -->
<!DOCTYPE svg PUBLIC "-//W3C//DTD SVG 1.1//EN" "http://www.w3.org/Graphics/SVG/1.1/DTD/svg11.dtd">
<svg version="1.1" id="Layer_1" xmlns="http://www.w3.org/2000/svg" xmlns:xlink="http://www.w3.org/1999/xlink" x="0px" y="0px"
	 width="32px" height="35.995px" viewBox="0 0 32 35.995" enable-background="new 0 0 32 35.995" xml:space="preserve">
<path fill-rule="evenodd" clip-rule="evenodd" fill="#FFFFFF" d="M32,24.938v-13.88c0-1.71-0.61-2.62-2.06-3.48l-11.88-6.94
	c-1.45-0.85-2.67-0.85-4.12,0L2.06,7.578C0.61,8.438,0,9.348,0,11.058v13.88c0,1.71,0.61,2.62,2.06,3.48l11.88,6.94
	c1.45,0.85,2.67,0.85,4.12,0l11.88-6.94C31.39,27.558,32,26.647,32,24.938z M17.39,13.808c0,0,1.46-1.84,3.06-1.84
	c1.91,0,3.55,1.43,3.55,3.58v8.8h-3v-7.13c0-0.86-0.16-2.19-1.29-2.19c-1.18,0-1.71,1.98-1.71,1.98v7.34h-3v-7.13
	c0-0.86-0.13-2.19-1.27-2.19c-1.19,0-1.73,1.98-1.73,1.98v7.34H9v-6.63c0-1.66-0.59-3.13-1.86-4.14l2.79-1.45
	c0.68,0.53,1.36,1.75,1.36,1.75s1.7-1.91,3.31-1.91C16.43,11.968,17.34,13.678,17.39,13.808z"/>
</svg>
