<svg xmlns="http://www.w3.org/2000/svg" width="17" height="21.624" viewBox="0 0 17 21.624">
  <metadata><?xpacket begin="﻿" id="W5M0MpCehiHzreSzNTczkc9d"?>
<x:xmpmeta xmlns:x="adobe:ns:meta/" x:xmptk="Adobe XMP Core 5.6-c140 79.160451, 2017/05/06-01:08:21        ">
   <rdf:RDF xmlns:rdf="http://www.w3.org/1999/02/22-rdf-syntax-ns#">
      <rdf:Description rdf:about=""/>
   </rdf:RDF>
</x:xmpmeta>
                                                                                                    
                                                                                                    
                                                                                                    
                                                                                                    
                                                                                                    
                                                                                                    
                                                                                                    
                                                                                                    
                                                                                                    
                                                                                                    
                                                                                                    
                                                                                                    
                                                                                                    
                                                                                                    
                                                                                                    
                                                                                                    
                                                                                                    
                                                                                                    
                                                                                                    
                                                                                                    
                           
<?xpacket end="w"?></metadata>
<defs>
    <style>
      .cls-1 {
        fill: #fafafa;
        fill-rule: evenodd;
      }
    </style>
  </defs>
  <path id="monitoramento-em-tempo-real" class="cls-1" d="M871.246,350.828l-3.1-1.437v-0.3a5.707,5.707,0,0,0,2.9-3.373,2.28,2.28,0,0,0,1.35-2.037v-0.773a2.235,2.235,0,0,0-.979-1.815c-0.53-2.921-2.772-4.4-6.671-4.4-0.184,0-.365.007-0.541,0.019a4.679,4.679,0,0,1-2.74-.572,3.39,3.39,0,0,1-.778-0.613,1.124,1.124,0,0,0-1.566-.048,0.872,0.872,0,0,0-.25.724c0.036,0.289.089,0.625,0.17,0.993a1.224,1.224,0,0,1-.067,1.2c-0.086.171-.193,0.379-0.319,0.66a7.993,7.993,0,0,0-.6,2.045,2.238,2.238,0,0,0-.963,1.805v0.773a2.28,2.28,0,0,0,1.35,2.037,5.7,5.7,0,0,0,2.9,3.373v0.29l-3.2,1.436a3.273,3.273,0,0,0-1.9,2.9v1.024c0,0.62,0,2.072,8.5,2.072s8.5-1.452,8.5-2.072v-0.962A3.269,3.269,0,0,0,871.246,350.828Z" transform="translate(-856.25 -335.188)"/>
</svg>
