<svg xmlns="http://www.w3.org/2000/svg" width="52" height="38" viewBox="0 0 52 38">
  <metadata><?xpacket begin="﻿" id="W5M0MpCehiHzreSzNTczkc9d"?>
<x:xmpmeta xmlns:x="adobe:ns:meta/" x:xmptk="Adobe XMP Core 5.6-c140 79.160451, 2017/05/06-01:08:21        ">
   <rdf:RDF xmlns:rdf="http://www.w3.org/1999/02/22-rdf-syntax-ns#">
      <rdf:Description rdf:about=""/>
   </rdf:RDF>
</x:xmpmeta>
                                                                                                    
                                                                                                    
                                                                                                    
                                                                                                    
                                                                                                    
                                                                                                    
                                                                                                    
                                                                                                    
                                                                                                    
                                                                                                    
                                                                                                    
                                                                                                    
                                                                                                    
                                                                                                    
                                                                                                    
                                                                                                    
                                                                                                    
                                                                                                    
                                                                                                    
                                                                                                    
                           
<?xpacket end="w"?></metadata>
<defs>
    <style>
      .cls-1 {
        fill: #fcfcfc;
        fill-rule: evenodd;
      }
    </style>
  </defs>
  <path id="normas-globais-dos-embarcadores" class="cls-1" d="M1249.27,348.078a3.853,3.853,0,0,0-1.68-.352h-30.11a9.828,9.828,0,0,0-3.97.959,9.312,9.312,0,0,0-3.33,2.335l-9.3,10.687a2.762,2.762,0,0,0-.86,1.782,1.193,1.193,0,0,0,.73,1.16,3.853,3.853,0,0,0,1.68.351h30.11a9.8,9.8,0,0,0,3.97-.958,9.324,9.324,0,0,0,3.33-2.335l9.3-10.687a2.76,2.76,0,0,0,.86-1.782A1.193,1.193,0,0,0,1249.27,348.078Zm-37.24-2.523a13.289,13.289,0,0,1,5.45-1.282h23.03v-4.318a5.745,5.745,0,0,0-1.83-4.265,6.038,6.038,0,0,0-4.37-1.781h-15.06v-0.864a5.77,5.77,0,0,0-1.82-4.264,6.06,6.06,0,0,0-4.38-1.781h-8.85a6.021,6.021,0,0,0-4.37,1.781,5.743,5.743,0,0,0-1.83,4.264v25.909c0,0.072,0,.185.01,0.338s0.02,0.265.02,0.337l0.14-.161,9.32-10.688A12.941,12.941,0,0,1,1212.03,345.555Z" transform="translate(-1198 -327)"/>
</svg>
