<svg xmlns="http://www.w3.org/2000/svg" width="48" height="48" viewBox="0 0 48 48">
  <metadata><?xpacket begin="﻿" id="W5M0MpCehiHzreSzNTczkc9d"?>
<x:xmpmeta xmlns:x="adobe:ns:meta/" x:xmptk="Adobe XMP Core 5.6-c140 79.160451, 2017/05/06-01:08:21        ">
   <rdf:RDF xmlns:rdf="http://www.w3.org/1999/02/22-rdf-syntax-ns#">
      <rdf:Description rdf:about=""/>
   </rdf:RDF>
</x:xmpmeta>
                                                                                                    
                                                                                                    
                                                                                                    
                                                                                                    
                                                                                                    
                                                                                                    
                                                                                                    
                                                                                                    
                                                                                                    
                                                                                                    
                                                                                                    
                                                                                                    
                                                                                                    
                                                                                                    
                                                                                                    
                                                                                                    
                                                                                                    
                                                                                                    
                                                                                                    
                                                                                                    
                           
<?xpacket end="w"?></metadata>
<defs>
    <style>
      .cls-1 {
        fill: #fefefe;
        fill-rule: evenodd;
      }
    </style>
  </defs>
  <path id="otimizacao-de-frota" class="cls-1" d="M519.427,572.072l-3.377,5.63,5.529,5.529,5.629-3.377a18.045,18.045,0,0,0,1.926.759l1.644,6.574h7.82l1.644-6.574c0.1-.036.2-0.087,0.3-0.125l-4.67-4.67a11.069,11.069,0,0,1-1.187.119,11.25,11.25,0,1,1,11.251-11.25,11.069,11.069,0,0,1-.12,1.187l4.67,4.67c0.038-.1.089-0.2,0.125-0.3l6.575-1.644v-7.819l-6.575-1.644a16.548,16.548,0,0,0-.759-1.832l3.377-5.629-5.529-5.529-5.631,3.377a16.553,16.553,0,0,0-1.83-.76L538.6,542h-7.82l-1.644,6.761a18.276,18.276,0,0,0-1.924.76l-5.631-3.377-5.529,5.529,3.377,5.629a16.548,16.548,0,0,0-.759,1.832L512,560.778V568.6l6.668,1.644A16.452,16.452,0,0,0,519.427,572.072Zm14.72-1.96,5.966-5.966-8.949-2.983Zm1.988,1.989,11.933,11.932,5.967-5.966L542.1,566.135Zm17.9,17.9L560,584.034l-3.978-3.977-5.966,5.966Z" transform="translate(-512 -542)"/>
</svg>
