<svg xmlns="http://www.w3.org/2000/svg" width="65" height="40" viewBox="0 0 65 40">
  <metadata><?xpacket begin="﻿" id="W5M0MpCehiHzreSzNTczkc9d"?>
<x:xmpmeta xmlns:x="adobe:ns:meta/" x:xmptk="Adobe XMP Core 5.6-c140 79.160451, 2017/05/06-01:08:21        ">
   <rdf:RDF xmlns:rdf="http://www.w3.org/1999/02/22-rdf-syntax-ns#">
      <rdf:Description rdf:about=""/>
   </rdf:RDF>
</x:xmpmeta>
                                                                                                    
                                                                                                    
                                                                                                    
                                                                                                    
                                                                                                    
                                                                                                    
                                                                                                    
                                                                                                    
                                                                                                    
                                                                                                    
                                                                                                    
                                                                                                    
                                                                                                    
                                                                                                    
                                                                                                    
                                                                                                    
                                                                                                    
                                                                                                    
                                                                                                    
                                                                                                    
                           
<?xpacket end="w"?></metadata>
<defs>
    <style>
      .cls-1 {
        fill: #fff;
        fill-rule: evenodd;
      }
    </style>
  </defs>
  <path id="reducao-de-acidentes" class="cls-1" d="M884.6,437.39l-5.342,6.858,3.42-8a0.779,0.779,0,0,1,.669-0.655,1.428,1.428,0,0,1,.329.156l0.5,0.239,0.5,0.24C885.107,436.5,885.022,436.891,884.6,437.39Zm-7.244,7.513,1.5-11.519c0.159-.812-0.085-1.384-0.669-1.384h-1.668c-0.584,0-.828.489-0.669,1.384Zm2.082,12.487a6.558,6.558,0,0,1,.669,2.935v10.863a0.813,0.813,0,0,1-.828.812h-4.334a0.773,0.773,0,0,1-.828-0.812v-2.695h-23.1v2.695a0.814,0.814,0,0,1-.829.812h-4.355a0.773,0.773,0,0,1-.828-0.812V460.325a6.109,6.109,0,0,1,.669-2.935l5.417-11.1a4.4,4.4,0,0,1,3.75-2.362h15.337a4.715,4.715,0,0,1,3.845,2.362Zm-29.6-.479h25.332l-3.664-7.669a2.733,2.733,0,0,0-3-1.8H855.919a2.6,2.6,0,0,0-2.326,1.8Zm3.5,5.547a2.682,2.682,0,0,0-2.751-2.612,2.608,2.608,0,0,0-2.666,2.612,2.678,2.678,0,0,0,2.666,2.695A2.745,2.745,0,0,0,853.338,462.458Zm23.835,0a2.682,2.682,0,0,0-2.751-2.612,2.608,2.608,0,0,0-2.666,2.612,2.678,2.678,0,0,0,2.666,2.695A2.739,2.739,0,0,0,877.173,462.458Zm-1.657-17.482-3.42-8a0.865,0.865,0,0,0-.669-0.656h-0.245c-0.085,0-.085.084-0.159,0.084l-0.5.239-0.425.323c-0.425.239-.329,0.655,0.085,1.144Zm34.244,15.682-2.507,9.23-0.329,1.227a0.853,0.853,0,0,1-1,.573l-4.163-1.072a0.829,0.829,0,0,1-.584-0.978l0.329-1.228,0.425-1.312-20.6-5.39v-1.55a8.948,8.948,0,0,0-.244-2.04,2.659,2.659,0,0,0,.489-5.234,3.064,3.064,0,0,0-2.507.656l-1.923-3.923c0.085-.083.16-0.239,0.245-0.323l8.168-9.313a4.648,4.648,0,0,1,3.175-1.467,4.511,4.511,0,0,1,1.095.083l14.594,3.673a4.562,4.562,0,0,1,3.08,3.268l2.326,12.091A5.777,5.777,0,0,1,909.76,460.658Zm-3.58-4.236L904.6,448.1a2.749,2.749,0,0,0-2.411-2.539L890.6,442.447a4.911,4.911,0,0,0-1.412-.156,3.207,3.207,0,0,0-1.923,1.228l-5.672,6.441Zm-1.582,2.612a1.041,1.041,0,0,0-.5-0.083h-0.5a2.436,2.436,0,0,0-2.251,1.967,2.644,2.644,0,0,0,1.837,3.267,2.758,2.758,0,0,0,3.335-1.884A2.687,2.687,0,0,0,904.6,459.034Z" transform="translate(-845 -432)"/>
</svg>
