<svg xmlns="http://www.w3.org/2000/svg" width="39" height="44" viewBox="0 0 39 44">
  <metadata><?xpacket begin="﻿" id="W5M0MpCehiHzreSzNTczkc9d"?>
<x:xmpmeta xmlns:x="adobe:ns:meta/" x:xmptk="Adobe XMP Core 5.6-c140 79.160451, 2017/05/06-01:08:21        ">
   <rdf:RDF xmlns:rdf="http://www.w3.org/1999/02/22-rdf-syntax-ns#">
      <rdf:Description rdf:about=""/>
   </rdf:RDF>
</x:xmpmeta>
                                                                                                    
                                                                                                    
                                                                                                    
                                                                                                    
                                                                                                    
                                                                                                    
                                                                                                    
                                                                                                    
                                                                                                    
                                                                                                    
                                                                                                    
                                                                                                    
                                                                                                    
                                                                                                    
                                                                                                    
                                                                                                    
                                                                                                    
                                                                                                    
                                                                                                    
                                                                                                    
                           
<?xpacket end="w"?></metadata>
<defs>
    <style>
      .cls-1 {
        fill: #fefefe;
        fill-rule: evenodd;
      }
    </style>
  </defs>
  <path id="consumo-de-combustivel" class="cls-1" d="M553.274,334.34l0.036-.037-8.8-9.081-2.5,2.591,4.987,5.158a6.1,6.1,0,0,0-3.8,5.7,6.015,6.015,0,0,0,5.909,6.111,5.673,5.673,0,0,0,2.363-.514v17.625a2.365,2.365,0,1,1-4.727,0v-11A4.809,4.809,0,0,0,542,346h-2.364V328.889A4.809,4.809,0,0,0,534.909,324H520.727A4.809,4.809,0,0,0,516,328.889V368h23.636V349.667h3.546v12.222a5.912,5.912,0,1,0,11.818,0V338.667A6.244,6.244,0,0,0,553.274,334.34Zm-18.365,6.771H520.727V328.889h14.182v12.222Zm14.182,0a2.446,2.446,0,1,1,2.364-2.444A2.412,2.412,0,0,1,549.091,341.111Z" transform="translate(-516 -324)"/>
</svg>
