<svg xmlns="http://www.w3.org/2000/svg" width="52.03" height="52" viewBox="0 0 52.03 52">
  <metadata><?xpacket begin="﻿" id="W5M0MpCehiHzreSzNTczkc9d"?>
<x:xmpmeta xmlns:x="adobe:ns:meta/" x:xmptk="Adobe XMP Core 5.6-c140 79.160451, 2017/05/06-01:08:21        ">
   <rdf:RDF xmlns:rdf="http://www.w3.org/1999/02/22-rdf-syntax-ns#">
      <rdf:Description rdf:about=""/>
   </rdf:RDF>
</x:xmpmeta>
                                                                                                    
                                                                                                    
                                                                                                    
                                                                                                    
                                                                                                    
                                                                                                    
                                                                                                    
                                                                                                    
                                                                                                    
                                                                                                    
                                                                                                    
                                                                                                    
                                                                                                    
                                                                                                    
                                                                                                    
                                                                                                    
                                                                                                    
                                                                                                    
                                                                                                    
                                                                                                    
                           
<?xpacket end="w"?></metadata>
<defs>
    <style>
      .cls-1 {
        fill: #fcfcfc;
        fill-rule: evenodd;
      }
    </style>
  </defs>
  <path id="gestao-de-jornada-de-trabalho" class="cls-1" d="M1243.43,438.733l3.67,3.662a0.9,0.9,0,0,0,1.27,0,7.272,7.272,0,0,0-10.3-10.269,0.9,0.9,0,0,0,0,1.265l4.09,4.078-1.52,1.519a24.207,24.207,0,0,0-32.28,0l-1.52-1.519,4.09-4.078a0.9,0.9,0,0,0,0-1.265,7.272,7.272,0,0,0-10.3,10.269,0.9,0.9,0,0,0,1.27,0l3.67-3.662,1.5,1.5a24.068,24.068,0,0,0,5.16,37.534l-2.71,2.708a0.892,0.892,0,0,0,0,1.264,0.879,0.879,0,0,0,.63.262,0.919,0.919,0,0,0,.64-0.262l3.09-3.085a24.216,24.216,0,0,0,21.24,0l3.09,3.085a0.919,0.919,0,0,0,.64.262,0.879,0.879,0,0,0,.63-0.262,0.892,0.892,0,0,0,0-1.264l-2.71-2.708a24.068,24.068,0,0,0,5.16-37.534Zm-1.1,7.911c0.01,0.014.02,0.023,0.03,0.038s0.01,0.033.02,0.049a20.482,20.482,0,0,1,0,20.468c-0.01.015-.01,0.032-0.02,0.048a0.228,0.228,0,0,1-.05.06,20.678,20.678,0,0,1-7.46,7.434,0.127,0.127,0,0,1-.04.034,0.7,0.7,0,0,1-.07.03,20.6,20.6,0,0,1-20.48,0,0.7,0.7,0,0,1-.07-0.03c-0.02-.009-0.02-0.024-0.04-0.034a20.783,20.783,0,0,1-7.47-7.434c-0.01-.021-0.03-0.037-0.04-0.06s-0.01-.033-0.02-0.048a20.482,20.482,0,0,1,0-20.468c0.01-.016.01-0.033,0.02-0.049s0.02-.023.03-0.038a20.824,20.824,0,0,1,7.48-7.456,0.127,0.127,0,0,1,.04-0.034,0.22,0.22,0,0,1,.05-0.017,20.592,20.592,0,0,1,20.52,0,0.22,0.22,0,0,1,.05.017,0.127,0.127,0,0,1,.04.034A20.824,20.824,0,0,1,1242.33,446.644Zm-2.75.6,0.74-.427a18.961,18.961,0,0,0-5.65-5.635l-0.43.738a0.894,0.894,0,0,1-1.22.328,0.891,0.891,0,0,1-.33-1.222l0.43-.741a18.727,18.727,0,0,0-7.72-2.057v0.849a0.9,0.9,0,0,1-1.8,0v-0.849l-2.01.332a22.458,22.458,0,0,0-4.79,1.352l-0.92.372,0.43,0.741a0.891,0.891,0,0,1-.33,1.222,0.872,0.872,0,0,1-.44.119,0.884,0.884,0,0,1-.78-0.447l-0.43-.738a18.953,18.953,0,0,0-5.65,5.636l0.74,0.426a0.894,0.894,0,0,1-.45,1.669,0.909,0.909,0,0,1-.45-0.12l-0.74-.428a18.53,18.53,0,0,0-2.06,7.7h0.85a0.894,0.894,0,0,1,0,1.788h-0.85a18.53,18.53,0,0,0,2.06,7.7l0.74-.429a0.9,0.9,0,1,1,.9,1.549l-0.74.426a18.953,18.953,0,0,0,5.65,5.636l0.43-.738a0.895,0.895,0,0,1,1.55.894l-0.43.741a18.712,18.712,0,0,0,7.72,2.057v-0.849a0.9,0.9,0,0,1,1.8,0v0.849a18.738,18.738,0,0,0,7.72-2.057l-0.43-.741a0.895,0.895,0,0,1,1.55-.894l0.43,0.738a18.953,18.953,0,0,0,5.65-5.636l-0.74-.426a0.89,0.89,0,0,1-.33-1.221,0.9,0.9,0,0,1,1.23-.328l0.74,0.429a18.538,18.538,0,0,0,2.06-7.7h-0.85a0.894,0.894,0,1,1,0-1.788h0.85a18.521,18.521,0,0,0-2.06-7.7l-0.74.428a0.9,0.9,0,0,1-1.23-.327A0.9,0.9,0,0,1,1239.58,447.248Zm-5.22,10.61h-6.4a3.58,3.58,0,1,1-4.36-4.344v-9.068a0.9,0.9,0,0,1,1.8,0v9.068a3.588,3.588,0,0,1,2.56,2.556h6.4A0.894,0.894,0,1,1,1234.36,457.858Zm-9.86-2.682a1.788,1.788,0,1,0,1.79,1.788A1.788,1.788,0,0,0,1224.5,455.176Z" transform="translate(-1198.5 -430)"/>
</svg>
