<?xml version="1.0" encoding="utf-8"?>
<!-- Generator: Adobe Illustrator 16.0.0, SVG Export Plug-In . SVG Version: 6.00 Build 0)  -->
<!DOCTYPE svg PUBLIC "-//W3C//DTD SVG 1.1//EN" "http://www.w3.org/Graphics/SVG/1.1/DTD/svg11.dtd">
<svg version="1.1" id="Layer_1" xmlns="http://www.w3.org/2000/svg" xmlns:xlink="http://www.w3.org/1999/xlink" x="0px" y="0px"
	 width="64px" height="66px" viewBox="0 0 64 66" enable-background="new 0 0 64 66" xml:space="preserve">
<path fill-rule="evenodd" clip-rule="evenodd" fill="#FFFFFF" d="M2.05,35H42.9l-10.53,9.8c-0.8,0.77-0.8,2.11,0,2.88
	c0.4,0.38,0.92,0.62,1.45,0.62c0.52,0,1.04-0.17,1.45-0.55l13.12-12.61c0.38-0.37,0.59-0.87,0.59-1.39s-0.21-1.02-0.59-1.39
	l-0.62-0.6c-0.14-0.19-0.33-0.37-0.53-0.5L35.27,19.74c-0.81-0.77-2.1-0.77-2.9,0c-0.8,0.77-0.8,2.29,0,3.06l8.72,8.2H2.05
	C0.92,31,0,32.4,0,33.49C0,34.58,0.92,35,2.05,35z M64,58.4v-49C64,4.68,60,0,55.04,0H28.48C23.61,0,19,4.51,19,9.4v11.66
	c0,1.09,0.88,1.97,2,1.97c1.13,0,2-0.88,2-1.97V9.46C23,6.75,25.79,4,28.38,4h26.76C57.85,4,60,6.9,60,9.46v48.88
	c0,2.62-2.25,3.66-4.86,3.66H28.38C25.96,62,23,61.13,23,58.34V46.67c0-1.08-0.87-1.97-2-1.97c-1.12,0-2,0.89-2,1.97V58.4
	c0,4.62,4.28,7.6,9.48,7.6h26.56C60.36,66,64,62.87,64,58.4z"/>
</svg>
