<?xml version="1.0" encoding="utf-8"?>
<!-- Generator: Adobe Illustrator 16.0.0, SVG Export Plug-In . SVG Version: 6.00 Build 0)  -->
<!DOCTYPE svg PUBLIC "-//W3C//DTD SVG 1.1//EN" "http://www.w3.org/Graphics/SVG/1.1/DTD/svg11.dtd">
<svg version="1.1" id="Layer_1" xmlns="http://www.w3.org/2000/svg" xmlns:xlink="http://www.w3.org/1999/xlink" x="0px" y="0px"
	 width="64px" height="66px" viewBox="0 0 64 66" enable-background="new 0 0 64 66" xml:space="preserve">
<path fill-rule="evenodd" clip-rule="evenodd" fill="#FFFFFF" d="M36.544,21.979c0.832,1.024,1.24,2.237,1.24,3.625
	c0,1.006-0.286,1.959-0.85,2.879c-0.312,0.529-0.711,1.041-1.223,1.525l-1.717,1.683c-1.647,1.622-2.705,3.044-3.182,4.284
	c-0.486,1.257-0.729,2.896-0.729,4.925h3.798c0-1.786,0.217-3.147,0.615-4.067c0.399-0.91,1.292-2.037,2.662-3.363
	c1.882-1.821,3.13-3.2,3.746-4.146c0.616-0.937,0.927-2.168,0.927-3.676c0-2.489-0.841-4.535-2.54-6.131
	c-1.682-1.613-3.928-2.411-6.729-2.411c-3.035,0-5.419,0.937-7.154,2.81c-1.734,1.882-2.601,4.336-2.601,7.414h3.798
	c0.052-1.847,0.356-3.252,0.867-4.24c0.911-1.769,2.55-2.653,4.943-2.653C34.341,20.436,35.711,20.947,36.544,21.979z
	 M29.997,44.446v4.448h4.258v-4.448H29.997z M32,61.068C16.487,61.068,3.931,48.495,3.931,33C3.931,17.487,16.487,4.932,32,4.932
	c15.495,0,28.068,12.556,28.068,28.068C60.068,48.495,47.495,61.068,32,61.068z M32,0.917C14.276,0.917-0.083,15.276-0.083,33
	S14.276,65.083,32,65.083c17.724,0,32.083-14.368,32.083-32.083C64.083,15.276,49.724,0.917,32,0.917z"/>
</svg>
