<?xml version="1.0" encoding="utf-8"?>
<!-- Generator: Adobe Illustrator 16.0.0, SVG Export Plug-In . SVG Version: 6.00 Build 0)  -->
<!DOCTYPE svg PUBLIC "-//W3C//DTD SVG 1.1//EN" "http://www.w3.org/Graphics/SVG/1.1/DTD/svg11.dtd">
<svg version="1.1" id="Layer_1" xmlns="http://www.w3.org/2000/svg" xmlns:xlink="http://www.w3.org/1999/xlink" x="0px" y="0px"
	 width="70px" height="66px" viewBox="0 0 70 66" enable-background="new 0 0 70 66" xml:space="preserve">
<path fill-rule="evenodd" clip-rule="evenodd" fill="#FFFFFF" d="M0,4v36.081h3.212V4H0z M8.39,4v36.081h3.212V4H8.39z M16.779,4
	v36.081h3.212V4H16.779z M65.934,55.553c-1.04,1.039-2.861,1.039-3.901,0L50.812,44.322c1.523-1.06,2.842-2.388,3.902-3.911
	l11.22,11.241C67.396,53.103,66.551,54.925,65.934,55.553z M42.093,43.828c-6.691,0-12.127-5.436-12.127-12.137
	c0-6.691,5.436-12.126,12.127-12.126S54.219,25,54.219,31.691C54.219,38.393,48.784,43.828,42.093,43.828z M68.199,49.376
	l-11.9-11.911c0.731-1.781,1.122-3.726,1.122-5.775c0-3.901-1.451-7.463-3.86-10.17V4h-3.201v14.772
	c-1.565-0.999-3.314-1.729-5.188-2.11V4h-3.212v12.353c-1.822,0.021-3.562,0.35-5.178,0.947V4h-3.212v14.947
	c-2.193,1.472-3.994,3.49-5.188,5.868V4h-3.201v36.081h3.201v-1.513c2.522,5.023,7.721,8.472,13.712,8.472
	c2.038,0,3.994-0.401,5.775-1.132l11.9,11.91c1.76,1.761,5.549,2.893,8.431,0C71.503,54.513,69.495,50.53,68.199,49.376z"/>
</svg>
