<?xml version="1.0" encoding="utf-8"?>
<!-- Generator: Adobe Illustrator 16.0.0, SVG Export Plug-In . SVG Version: 6.00 Build 0)  -->
<!DOCTYPE svg PUBLIC "-//W3C//DTD SVG 1.1//EN" "http://www.w3.org/Graphics/SVG/1.1/DTD/svg11.dtd">
<svg version="1.1" id="Layer_1" xmlns="http://www.w3.org/2000/svg" xmlns:xlink="http://www.w3.org/1999/xlink" x="0px" y="0px"
	 width="70px" height="66px" viewBox="0 0 70 66" enable-background="new 0 0 70 66" xml:space="preserve">
<path fill-rule="evenodd" clip-rule="evenodd" fill="#FFFFFF" d="M47.317,30.95H37.059V20.683c0-1.127-0.923-2.05-2.059-2.05
	s-2.05,0.923-2.05,2.05V30.95H22.683c-1.127,0-2.05,0.914-2.05,2.05s0.923,2.05,2.05,2.05H32.95v10.267
	c0,1.127,0.914,2.041,2.05,2.041s2.059-0.914,2.059-2.041V35.05h10.258c1.127,0,2.041-0.914,2.041-2.05S48.444,30.95,47.317,30.95z
	 M35,61.725C19.125,61.725,6.275,48.857,6.275,33C6.275,17.125,19.125,4.275,35,4.275c15.857,0,28.725,12.849,28.725,28.725
	C63.725,48.857,50.857,61.725,35,61.725z M35,0.167C16.862,0.167,2.167,14.862,2.167,33S16.862,65.833,35,65.833
	c18.138,0,32.833-14.704,32.833-32.833C67.833,14.862,53.138,0.167,35,0.167z"/>
</svg>
