<?xml version="1.0" encoding="utf-8"?>
<!-- Generator: Adobe Illustrator 16.0.0, SVG Export Plug-In . SVG Version: 6.00 Build 0)  -->
<!DOCTYPE svg PUBLIC "-//W3C//DTD SVG 1.1//EN" "http://www.w3.org/Graphics/SVG/1.1/DTD/svg11.dtd">
<svg version="1.1" id="Layer_1" xmlns="http://www.w3.org/2000/svg" xmlns:xlink="http://www.w3.org/1999/xlink" x="0px" y="0px"
	 width="70px" height="66px" viewBox="0 0 70 66" enable-background="new 0 0 70 66" xml:space="preserve">
<path fill-rule="evenodd" clip-rule="evenodd" fill="#FFFFFF" d="M46.556,0.741v5.874H23.444v5.855h23.111v5.864l8.676-8.801
	L46.556,0.741z M50.898,50.593c-2.311,0-4.343-2.061-4.343-4.41c0-2.331,2.032-4.392,4.343-4.392c2.301,0,4.333,2.061,4.333,4.392
	C55.231,48.533,53.2,50.593,50.898,50.593z M19.111,50.593c-2.311,0-4.324-2.061-4.324-4.41c0-2.331,2.013-4.392,4.324-4.392
	s4.333,2.061,4.333,4.392C23.444,48.533,21.422,50.593,19.111,50.593z M54.934,21.271c-0.578-1.762-2.312-2.937-4.035-2.937H17.657
	V12.47L9,21.271l5.787,5.855l2.87,2.937v-5.874h33.819l3.755,11.748H9v26.385c0,1.762,1.156,2.937,2.889,2.937h2.898
	c1.714,0,2.87-1.175,2.87-2.937v-2.937h34.676v2.937c0,1.762,1.165,2.937,2.898,2.937h2.889c1.724,0,2.879-1.175,2.879-2.937V38.855
	L54.934,21.271z"/>
</svg>
