<?xml version="1.0" encoding="utf-8"?>
<!-- Generator: Adobe Illustrator 16.0.0, SVG Export Plug-In . SVG Version: 6.00 Build 0)  -->
<!DOCTYPE svg PUBLIC "-//W3C//DTD SVG 1.1//EN" "http://www.w3.org/Graphics/SVG/1.1/DTD/svg11.dtd">
<svg version="1.1" id="Layer_1" xmlns="http://www.w3.org/2000/svg" xmlns:xlink="http://www.w3.org/1999/xlink" x="0px" y="0px"
	 width="318.664px" height="95.936px" viewBox="-26.276 -8.791 318.664 95.936"
	 enable-background="new -26.276 -8.791 318.664 95.936" xml:space="preserve">
<g>
	<g>
		<g opacity="0.6">
			<circle fill="none" stroke="#C0C0C0" stroke-width="2" stroke-miterlimit="10" cx="20.816" cy="36.038" r="43.098"/>
			<circle fill="none" stroke="#C0C0C0" stroke-width="2" stroke-miterlimit="10" cx="20.816" cy="36.038" r="40.19"/>
			<circle fill="none" stroke="#C0C0C0" stroke-width="2" stroke-miterlimit="10" cx="20.816" cy="36.038" r="37.284"/>
			<circle fill="none" stroke="#C0C0C0" stroke-width="2" stroke-miterlimit="10" cx="20.816" cy="36.037" r="34.375"/>
			<circle fill="none" stroke="#C0C0C0" stroke-width="2" stroke-miterlimit="10" cx="20.816" cy="36.038" r="31.467"/>
			<circle fill="none" stroke="#C0C0C0" stroke-width="2" stroke-miterlimit="10" cx="20.816" cy="36.038" r="28.559"/>
			<circle fill="none" stroke="#C0C0C0" stroke-width="2" stroke-miterlimit="10" cx="20.816" cy="36.038" r="25.652"/>
			<circle fill="none" stroke="#C0C0C0" stroke-width="2" stroke-miterlimit="10" cx="20.817" cy="36.037" r="22.743"/>
			<circle fill="none" stroke="#C0C0C0" stroke-width="2" stroke-miterlimit="10" cx="20.816" cy="36.038" r="19.836"/>
			<circle fill="none" stroke="#C0C0C0" stroke-width="2" stroke-miterlimit="10" cx="20.816" cy="36.038" r="16.929"/>
		</g>
		<g>
			<g>
				
					<linearGradient id="SVGID_1_" gradientUnits="userSpaceOnUse" x1="129.9255" y1="-31.3237" x2="129.9255" y2="-105.3076" gradientTransform="matrix(0.976 -0.2176 -0.2176 -0.976 -119.4405 5.9047)">
					<stop  offset="0" style="stop-color:#C64833"/>
					<stop  offset="1" style="stop-color:#C8281D"/>
				</linearGradient>
				<path fill="url(#SVGID_1_)" d="M58.601,18.012c-0.258-0.553-0.849-0.894-1.457-0.826l-81.638-0.348
					c-0.633,0.067-1.223,0.521-1.277,1.158c-0.064,0.735,0,0.791,0.728,1.565L0.6,46.488l0.699,36.645
					c-0.006,0.689-0.029,2.504,0.223,2.817c0.089,0.11-0.037-0.094,0,0c0.15,0.373,0.723,0.572,0.797,0.601
					c0.516,0.176,0.881-0.326,1.28-0.723l54.71-66.158C58.742,19.232,58.856,18.574,58.601,18.012L58.601,18.012z"/>
			</g>
		</g>
		<g>
			<g>
				
					<linearGradient id="SVGID_2_" gradientUnits="userSpaceOnUse" x1="136.8499" y1="-106.0181" x2="136.8499" y2="-31.0972" gradientTransform="matrix(0.976 -0.2176 -0.2176 -0.976 -119.4405 5.9047)">
					<stop  offset="0" style="stop-color:#ED2F3D"/>
					<stop  offset="1" style="stop-color:#F6911E"/>
				</linearGradient>
				<path fill="url(#SVGID_2_)" d="M71.666,13.001c-0.326-0.703-1.075-1.135-1.846-1.049l-93.974,4.577
					c-0.801,0.083-2.189,0.935-1.5,2.331c0,0-0.634-1.451,2.893,0.725l37.577,21.39L3.696,81.062
					c-1.599,6.863-2.175,4.887-2.175,4.887c0.089,0.063,0.052,0.634,1.042,1.072c0.633,0.277,1.394,0.072,1.898-0.432l66.834-71.491
					C71.846,14.547,71.992,13.712,71.666,13.001L71.666,13.001z"/>
			</g>
		</g>
	</g>
	<g>
		<path fill="#454545" d="M84.642,50.875V23.982h15.24c5.323,0,7.862,3.468,7.862,6.854c0,3.347-2.056,5.604-4.596,6.169
			c2.863,0.443,5.121,3.186,5.121,6.574c0,3.911-2.622,7.298-7.903,7.298H84.642V50.875z M100.689,32.045
			c0-1.29-0.968-2.218-2.379-2.218h-6.732v4.475h6.732C99.722,34.304,100.689,33.376,100.689,32.045z M101.214,42.61
			c0-1.33-0.968-2.42-2.662-2.42h-6.975v4.838h6.975C100.205,45.03,101.214,44.061,101.214,42.61z"/>
		<path fill="#454545" d="M112.054,50.875V23.982h6.935v20.846h10.806v6.047H112.054z"/>
		<path fill="#454545" d="M132.009,37.448c0-8.185,6.17-13.91,14.395-13.91s14.353,5.725,14.353,13.91
			c0,8.185-6.128,13.911-14.353,13.911S132.009,45.634,132.009,37.448z M153.7,37.448c0-4.395-2.863-7.781-7.297-7.781
			c-4.475,0-7.339,3.386-7.339,7.781c0,4.356,2.864,7.781,7.339,7.781C150.839,45.232,153.7,41.804,153.7,37.448z"/>
		<path fill="#454545" d="M162.889,37.448c0-8.305,6.29-13.91,14.555-13.91c6.493,0,9.96,3.669,11.732,7.218l-5.968,2.822
			c-0.887-2.136-3.185-3.911-5.766-3.911c-4.395,0-7.499,3.386-7.499,7.781c0,4.396,3.104,7.781,7.499,7.781
			c2.579,0,4.878-1.774,5.766-3.909l5.968,2.822c-1.732,3.467-5.239,7.217-11.732,7.217
			C169.179,51.359,162.889,45.714,162.889,37.448z"/>
		<path fill="#454545" d="M207.96,50.875l-7.056-10.12l-1.815,2.258v7.862h-6.936V23.982h6.936V35.03l8.267-11.047h8.547
			l-10.443,12.58l11.008,14.313H207.96z"/>
		<path fill="#454545" d="M216.585,47.085l3.669-5.201c1.935,1.937,4.919,3.549,8.588,3.549c2.378,0,3.829-0.927,3.829-2.217
			c0-3.671-15.24-0.726-15.24-11.089c0-4.517,3.83-8.548,10.726-8.548c4.314,0,8.064,1.291,10.928,3.75l-3.791,4.959
			c-2.257-1.854-5.201-2.782-7.862-2.782c-2.017,0-2.902,0.808-2.902,1.936c0,3.426,15.2,0.926,15.2,10.926
			c0,5.404-3.991,8.991-11.21,8.991C223.075,51.359,219.286,49.666,216.585,47.085z"/>
		<path fill="#454545" d="M261.213,50.875l-1.329-3.871H249.28l-1.33,3.871h-7.862l10.12-26.893h8.709l10.162,26.893H261.213z
			 M254.56,30.837l-3.425,10.121h6.854L254.56,30.837z"/>
		<path fill="#454545" d="M277.053,50.875V30.03h-7.54v-6.048h21.976v6.048h-7.499v20.845H277.053z"/>
	</g>
</g>
</svg>
