<svg xmlns="http://www.w3.org/2000/svg" width="48" height="48" viewBox="0 0 48 48">
  <metadata><?xpacket begin="﻿" id="W5M0MpCehiHzreSzNTczkc9d"?>
<x:xmpmeta xmlns:x="adobe:ns:meta/" x:xmptk="Adobe XMP Core 5.6-c140 79.160451, 2017/05/06-01:08:21        ">
   <rdf:RDF xmlns:rdf="http://www.w3.org/1999/02/22-rdf-syntax-ns#">
      <rdf:Description rdf:about=""/>
   </rdf:RDF>
</x:xmpmeta>
                                                                                                    
                                                                                                    
                                                                                                    
                                                                                                    
                                                                                                    
                                                                                                    
                                                                                                    
                                                                                                    
                                                                                                    
                                                                                                    
                                                                                                    
                                                                                                    
                                                                                                    
                                                                                                    
                                                                                                    
                                                                                                    
                                                                                                    
                                                                                                    
                                                                                                    
                                                                                                    
                           
<?xpacket end="w"?></metadata>
<defs>
    <style>
      .cls-1 {
        fill: #fff;
        fill-rule: evenodd;
      }
    </style>
  </defs>
  <path id="ranking-de-motoristas" class="cls-1" d="M869.172,553.219c-0.511-.082.169-0.058-11.051-0.058a4.54,4.54,0,0,0-4.55,4.488l-0.071,14a1.923,1.923,0,0,0,3.846.019l0.071-14a0.371,0.371,0,0,1,.742,0v32.042a2.308,2.308,0,0,0,4.615,0V571.429h1v18.284a2.307,2.307,0,0,0,4.614,0c0-31.379-.04-11.883-0.042-32.043a0.4,0.4,0,0,1,.8,0l0.071,14a1.923,1.923,0,0,0,3.846-.018l-0.071-14A4.536,4.536,0,0,0,869.172,553.219ZM863.3,551.9a3.951,3.951,0,1,0-3.985-3.95A3.971,3.971,0,0,0,863.3,551.9Zm37.115,0.454h-3.22v-5.632a1.082,1.082,0,0,0-1.087-1.077H875.32a1.081,1.081,0,0,0-1.087,1.077v5.632h-1.857a6.584,6.584,0,0,1,2.724,5.283l0.067,13.245a4.991,4.991,0,0,0,.7.012v2.239a2.579,2.579,0,0,0,5.157,0V570.9h9.386v2.239a2.579,2.579,0,0,0,5.157,0V570.9h0.544a1.082,1.082,0,0,0,1.086-1.077v-7.549h3.221a1.082,1.082,0,0,0,1.086-1.077v-7.76A1.081,1.081,0,0,0,900.414,552.355Zm-23.375-.8a0.646,0.646,0,0,1,.649-0.644h16.051a0.647,0.647,0,0,1,.649.644v7.307a0.647,0.647,0,0,1-.649.644H877.688a0.647,0.647,0,0,1-.649-0.644v-7.307Zm1.728,17.384a2.358,2.358,0,1,1,2.378-2.357A2.368,2.368,0,0,1,878.767,568.938Zm13.893,0a2.358,2.358,0,1,1,2.377-2.357A2.367,2.367,0,0,1,892.66,568.938Z" transform="translate(-853.5 -544)"/>
</svg>
